<svg id="Layer_1" height="512" viewBox="0 0 48 48" width="512" xmlns="http://www.w3.org/2000/svg" data-name="Layer 1"><path d="m23 35a11.979 11.979 0 0 0 5.38 10h-20.85a4.994 4.994 0 0 1 -4.96-5.62l3-24a5 5 0 0 1 4.96-4.38h2.47v6a1 1 0 0 0 2 0v-6h12v6a1 1 0 0 0 2 0v-6h2.47a5 5 0 0 1 4.96 4.38l.98 7.86a12.02 12.02 0 0 0 -14.41 11.76z"/><path d="m29 11h-2a6 6 0 0 0 -12 0h-2a8 8 0 0 1 16 0z"/><path d="m35 25a10 10 0 1 0 10 10 10.011 10.011 0 0 0 -10-10zm3 11h-2v2a1 1 0 0 1 -2 0v-2h-2a1 1 0 0 1 0-2h2v-2a1 1 0 0 1 2 0v2h2a1 1 0 0 1 0 2z"/></svg>