<svg width="500" height="501" viewBox="0 0 500 501" fill="none" xmlns="http://www.w3.org/2000/svg">
<path d="M250 344.253C265.452 344.253 280.556 339.671 293.404 331.087C306.252 322.502 316.265 310.301 322.178 296.025C328.091 281.75 329.638 266.041 326.624 250.887C323.609 235.732 316.169 221.811 305.243 210.885C294.317 199.959 280.396 192.519 265.241 189.504C250.087 186.49 234.378 188.037 220.103 193.95C205.827 199.863 193.626 209.876 185.041 222.724C176.457 235.572 171.875 250.676 171.875 266.128C171.875 286.848 180.106 306.719 194.757 321.371C209.409 336.022 229.28 344.253 250 344.253Z" fill="#1E3443"/>
<path d="M74.2969 438.003H425.859C437.249 437.962 448.158 433.408 456.197 425.34C464.236 417.271 468.75 406.346 468.75 394.956V158.159C468.75 149.498 465.309 141.192 459.185 135.068C453.061 128.943 444.755 125.503 436.094 125.503H377.344C375.008 125.505 372.708 124.928 370.649 123.823C368.59 122.719 366.838 121.122 365.547 119.175L338.281 78.6279C335.192 73.8676 330.97 69.9483 325.993 67.2213C321.016 64.4943 315.44 63.0449 309.766 63.0029H190.234C184.56 63.0449 178.984 64.4943 174.007 67.2213C169.03 69.9483 164.808 73.8676 161.719 78.6279L134.375 119.175C133.092 121.111 131.351 122.701 129.307 123.805C127.263 124.909 124.979 125.492 122.656 125.503H63.9063C55.2453 125.503 46.939 128.943 40.8148 135.068C34.6906 141.192 31.25 149.498 31.25 158.159V394.956C31.25 406.373 35.7853 417.322 43.8581 425.395C51.931 433.468 62.8801 438.003 74.2969 438.003ZM406.25 156.753C409.34 156.753 412.361 157.669 414.931 159.386C417.5 161.103 419.503 163.543 420.686 166.398C421.868 169.254 422.178 172.395 421.575 175.426C420.972 178.457 419.484 181.241 417.299 183.426C415.113 185.612 412.329 187.1 409.298 187.703C406.267 188.306 403.126 187.996 400.271 186.814C397.415 185.631 394.975 183.628 393.258 181.059C391.541 178.489 390.625 175.468 390.625 172.378C390.625 168.234 392.271 164.26 395.201 161.329C398.132 158.399 402.106 156.753 406.25 156.753ZM250 156.753C271.632 156.753 292.779 163.168 310.766 175.186C328.752 187.204 342.771 204.286 351.049 224.272C359.328 244.258 361.494 266.249 357.273 287.466C353.053 308.683 342.636 328.171 327.34 343.468C312.043 358.764 292.555 369.181 271.338 373.401C250.121 377.622 228.13 375.456 208.144 367.177C188.158 358.899 171.076 344.88 159.058 326.893C147.04 308.907 140.625 287.76 140.625 266.128C140.625 237.12 152.148 209.3 172.66 188.788C193.172 168.276 220.992 156.753 250 156.753Z" fill="#1E3443"/>
<path d="M428.281 94.2529C430.726 94.2529 433.071 93.2817 434.8 91.5528C436.529 89.824 437.5 87.4791 437.5 85.0342V80.2686C437.479 75.6823 435.643 71.2909 432.393 68.0551C429.142 64.8194 424.743 63.0029 420.156 63.0029H387.734C386.201 63.0029 384.731 63.612 383.646 64.6962C382.562 65.7804 381.953 67.2509 381.953 68.7842C381.953 75.5389 384.636 82.017 389.413 86.7933C394.189 91.5696 400.667 94.2529 407.422 94.2529H428.281Z" fill="#1E3443"/>
</svg>
