<svg width="500" height="501" viewBox="0 0 500 501" fill="none" xmlns="http://www.w3.org/2000/svg">
<g clip-path="url(#clip0_3483_1048)">
<path d="M389.535 0.500977H110.465C62.3274 0.565282 23.3202 39.5725 23.2559 87.7103V413.292C23.3202 461.429 62.3274 500.437 110.465 500.501H389.535C437.673 500.437 476.68 461.429 476.744 413.292V87.7103C476.68 39.5725 437.673 0.565282 389.535 0.500977ZM133.721 105.152H273.256C282.889 105.152 290.698 112.961 290.698 122.594C290.698 132.227 282.889 140.036 273.256 140.036H133.721C124.088 140.036 116.279 132.227 116.279 122.594C116.279 112.961 124.088 105.152 133.721 105.152ZM378.605 363.618L316.581 425.617C309.802 432.425 298.788 432.447 291.98 425.667C291.964 425.651 291.947 425.634 291.93 425.617L260.93 394.687C253.998 387.998 253.802 376.956 260.491 370.024C267.179 363.093 278.222 362.896 285.153 369.585C285.299 369.725 285.441 369.868 285.581 370.012L304.186 388.617L353.954 338.872C360.885 332.183 371.927 332.381 378.616 339.313C385.141 346.074 385.136 356.791 378.605 363.546V363.618ZM366.279 302.827H133.721C124.088 302.827 116.279 295.017 116.279 285.385C116.279 275.752 124.088 267.943 133.721 267.943H366.279C375.912 267.943 383.721 275.752 383.721 285.385C383.721 295.017 375.912 302.827 366.279 302.827ZM366.279 221.431H133.721C124.088 221.431 116.279 213.622 116.279 203.989C116.279 194.357 124.088 186.547 133.721 186.547H366.279C375.912 186.547 383.721 194.357 383.721 203.989C383.721 213.622 375.912 221.431 366.279 221.431Z" fill="#1E3443"/>
</g>
<defs>
<clipPath id="clip0_3483_1048">
<rect width="500" height="500" fill="white" transform="translate(0 0.500977)"/>
</clipPath>
</defs>
</svg>
