<svg width="500" height="501" viewBox="0 0 500 501" fill="none" xmlns="http://www.w3.org/2000/svg">
<g clip-path="url(#clip0_3483_1104)">
<path fill-rule="evenodd" clip-rule="evenodd" d="M180.087 500.473C179.365 500.473 178.632 500.317 177.949 499.985C176.084 499.077 174.99 497.084 175.234 495.014L178.72 465.805L130.38 471.557C128.896 471.733 127.412 471.225 126.347 470.161C125.293 469.106 124.775 467.622 124.951 466.137L130.712 417.797L82.3726 423.549C80.8882 423.735 79.4038 423.217 78.3492 422.163C77.2847 421.098 76.7769 419.614 76.9527 418.129L82.7046 369.79L34.3745 375.551C32.8902 375.727 31.396 375.209 30.3413 374.155C29.2867 373.09 28.7691 371.606 28.9449 370.122L34.6968 321.782L5.48782 325.268C3.41751 325.522 1.42532 324.418 0.517121 322.553C-0.391082 320.678 -0.0199884 318.432 1.45462 316.967L93.8277 224.594L275.908 406.674L183.535 499.047C182.597 499.985 181.347 500.473 180.087 500.473ZM234.043 238.149C214.443 238.149 198.486 222.192 198.486 202.592C198.486 182.993 214.443 167.045 234.043 167.045C253.642 167.045 269.589 182.993 269.589 202.592C269.589 222.192 253.642 238.149 234.043 238.149ZM234.043 176.801C219.824 176.801 208.251 188.374 208.251 202.592C208.251 216.811 219.824 228.383 234.043 228.383C248.261 228.383 259.834 216.811 259.834 202.592C259.834 188.374 248.261 176.801 234.043 176.801ZM361.777 238.149C342.177 238.149 326.23 222.192 326.23 202.592C326.23 182.993 342.177 167.045 361.777 167.045C381.386 167.045 397.334 182.993 397.334 202.592C397.334 222.192 381.386 238.149 361.777 238.149ZM361.777 176.801C347.558 176.801 335.996 188.374 335.996 202.592C335.996 216.811 347.568 228.383 361.777 228.383C375.996 228.383 387.568 216.811 387.568 202.592C387.568 188.374 375.996 176.801 361.777 176.801ZM297.91 304.838C295.214 304.838 293.027 302.651 293.027 299.956V105.229C293.027 102.534 295.214 100.346 297.91 100.346C300.605 100.346 302.793 102.534 302.793 105.229V299.956C302.793 302.651 300.605 304.838 297.91 304.838ZM100.732 217.69L316.464 1.95752C318.369 0.0532227 321.455 0.0532227 323.369 1.95752L498.544 177.133C499.462 178.051 499.97 179.292 499.97 180.59C499.97 181.879 499.462 183.129 498.544 184.038L282.812 399.77L100.732 217.69Z" fill="#1E3443"/>
</g>
<defs>
<clipPath id="clip0_3483_1104">
<rect width="500" height="500" fill="white" transform="translate(0 0.50293)"/>
</clipPath>
</defs>
</svg>
