<svg width="501" height="500" viewBox="0 0 501 500" fill="none" xmlns="http://www.w3.org/2000/svg">
<g clip-path="url(#clip0_3483_1041)">
<path d="M286.353 317.891C281.548 322.692 275.61 326.361 269.176 328.507L207.026 349.223C202.541 350.719 197.863 351.479 193.131 351.479C181.392 351.479 170.355 346.907 162.056 338.606C150.209 326.757 146.143 309.526 151.44 293.635L172.157 231.488C174.301 225.052 177.973 219.11 182.772 214.311L317.006 80.0781H54.375C24.7588 80.0781 0.664062 104.173 0.664062 133.789V446.289C0.664062 475.905 24.7588 500 54.375 500H366.875C396.491 500 420.586 475.905 420.586 446.289V183.658L286.353 317.891Z" fill="#1E3443"/>
<path d="M203.488 235.027C201.879 236.636 200.668 238.596 199.95 240.753L179.233 302.9C177.478 308.164 178.848 313.967 182.771 317.891C186.695 321.814 192.497 323.185 197.761 321.429L259.91 300.713C262.068 299.994 264.027 298.783 265.635 297.175L448.627 114.184L386.48 52.0361L203.488 235.027Z" fill="#1E3443"/>
<path d="M465.891 7.15063C456.356 -2.38355 440.898 -2.38355 431.364 7.15063L407.195 31.3196L469.344 93.468L493.513 69.2991C503.047 59.7649 503.047 44.3069 493.513 34.7727L465.891 7.15063Z" fill="#1E3443"/>
</g>
<defs>
<clipPath id="clip0_3483_1041">
<rect width="500" height="500" fill="white" transform="translate(0.664062)"/>
</clipPath>
</defs>
</svg>
