<svg width="500" height="500" viewBox="0 0 500 500" fill="none" xmlns="http://www.w3.org/2000/svg">
<path d="M88.75 468.75H411.25C418.801 468.75 426.278 467.263 433.254 464.373C440.231 461.483 446.569 457.248 451.909 451.909C457.248 446.569 461.483 440.231 464.373 433.254C467.263 426.278 468.75 418.801 468.75 411.25V88.75C468.75 81.199 467.263 73.7219 464.373 66.7457C461.483 59.7695 457.248 53.4307 451.909 48.0914C446.569 42.752 440.231 38.5166 433.254 35.6269C426.278 32.7373 418.801 31.25 411.25 31.25H88.75C73.5 31.25 58.8747 37.308 48.0914 48.0914C37.308 58.8747 31.25 73.5 31.25 88.75V411.25C31.25 418.801 32.7373 426.278 35.6269 433.254C38.5166 440.231 42.752 446.569 48.0914 451.909C53.4307 457.248 59.7695 461.483 66.7457 464.373C73.7219 467.263 81.199 468.75 88.75 468.75ZM140.625 93.75C149.896 93.75 158.959 96.4992 166.667 101.65C174.376 106.801 180.384 114.121 183.932 122.687C187.48 131.252 188.408 140.677 186.599 149.77C184.791 158.863 180.326 167.215 173.771 173.771C167.215 180.326 158.863 184.791 149.77 186.599C140.677 188.408 131.252 187.48 122.687 183.932C114.121 180.384 106.801 174.376 101.65 166.667C96.4992 158.959 93.75 149.896 93.75 140.625C93.75 128.193 98.6886 116.27 107.479 107.479C116.27 98.6886 128.193 93.75 140.625 93.75ZM72.9688 365.156L230.625 206.953C233.176 204.364 236.217 202.308 239.57 200.905C242.923 199.502 246.521 198.779 250.156 198.779C253.791 198.779 257.39 199.502 260.743 200.905C264.096 202.308 267.136 204.364 269.688 206.953L338.281 275.781C340.188 277.683 341.7 279.941 342.732 282.428C343.764 284.915 344.295 287.581 344.295 290.273C344.295 292.966 343.764 295.632 342.732 298.119C341.7 300.605 340.188 302.864 338.281 304.766L301.484 341.563C299.844 343.173 298.579 345.125 297.779 347.281C296.98 349.436 296.666 351.742 296.86 354.032C297.054 356.323 297.751 358.543 298.902 360.533C300.052 362.523 301.627 364.235 303.516 365.547C306.713 367.671 310.557 368.6 314.372 368.171C318.187 367.742 321.728 365.983 324.375 363.203L375 312.5L424.297 263.281C425.385 262.152 426.788 261.376 428.323 261.055C429.858 260.734 431.454 260.882 432.904 261.48C434.353 262.079 435.589 263.1 436.451 264.41C437.313 265.721 437.76 267.26 437.734 268.828V375V400.313C437.828 405.156 436.956 409.97 435.169 414.472C433.382 418.975 430.716 423.077 427.328 426.539C423.939 430 419.894 432.752 415.43 434.634C410.966 436.516 406.172 437.491 401.328 437.5H110.625C98.0751 437.504 86.02 432.606 77.0299 423.849C68.0398 415.093 62.826 403.171 62.5 390.625C62.892 381.17 66.598 372.154 72.9688 365.156Z" fill="#1E3443"/>
</svg>
