<svg width="501" height="501" viewBox="0 0 501 501" fill="none" xmlns="http://www.w3.org/2000/svg">
<g clip-path="url(#clip0_3483_1022)">
<path d="M325.986 424.917C325.986 459.143 302.895 487.959 271.455 496.664C265.118 498.419 258.447 499.357 251.557 499.357C210.446 499.357 177.117 466.032 177.117 424.917L251.675 386.603L325.986 424.917Z" fill="#1E3443"/>
<path d="M322.384 447.878C314.72 471.529 295.536 490 271.454 496.664C256.313 492.476 243.11 483.625 233.49 471.758C225.734 462.187 232.731 447.878 245.048 447.878H322.384Z" fill="#1E3443"/>
<path d="M443.74 350.489L283.816 385.073L59.3594 350.489C76.9718 350.489 86.932 341.276 92.5854 325.998C119.933 252.245 47.0951 37.2944 251.555 37.2944C456.015 37.2944 383.166 252.245 410.514 325.998C416.179 341.276 426.135 350.489 443.74 350.489Z" fill="#1E3443"/>
<path d="M480.954 387.705C480.954 408.255 464.291 424.917 443.741 424.917H59.3608C49.0878 424.917 39.78 420.756 33.047 414.019C26.3103 407.286 22.1484 397.978 22.1484 387.705C22.1484 367.151 38.811 350.489 59.3608 350.489H443.741C454.014 350.489 463.322 354.654 470.055 361.387C476.792 368.124 480.954 377.428 480.954 387.705Z" fill="#1E3443"/>
<path d="M410.514 325.999H210.734C189.197 325.999 171.973 308.173 172.641 286.642C175.456 195.563 160.93 39.0266 250.06 37.3062C5.39685 38.5726 161.796 350.489 59.3672 350.489H443.74C426.135 350.489 416.179 341.277 410.514 325.999Z" fill="#1E3443"/>
<path d="M480.952 387.705C480.952 408.255 464.29 424.917 443.74 424.917H166.904C156.627 424.917 147.319 420.756 140.586 414.019C133.853 407.286 129.688 397.978 129.688 387.705C129.688 367.151 146.35 350.489 166.904 350.489H443.74C454.013 350.489 463.321 354.654 470.054 361.387C476.791 368.124 480.952 377.428 480.952 387.705Z" fill="#1E3443"/>
<path d="M289.385 40.1442C289.465 39.2058 289.495 38.2559 289.495 37.2946C289.495 16.3481 272.509 -0.642578 251.558 -0.642578C230.6 -0.642578 213.621 16.3481 213.621 37.2946C213.621 38.2559 213.652 39.2058 213.732 40.1442" fill="#1E3443"/>
<path d="M436.325 163.145C432.098 163.145 428.672 159.716 428.672 155.493C428.672 120.074 419.567 89.8459 401.611 65.6493C388.206 47.5867 374.576 39.8124 374.443 39.7322C370.765 37.6685 369.442 33.0146 371.494 29.3296C373.546 25.6484 378.177 24.3132 381.866 26.3503C382.518 26.7127 398.014 35.4102 413.36 55.8036C427.33 74.3659 443.981 106.73 443.981 155.493C443.981 159.716 440.551 163.145 436.325 163.145Z" fill="#1E3443"/>
<path d="M469.994 119.269C465.767 119.269 462.341 115.843 462.341 111.616C462.341 62.7652 433.411 43.3446 432.179 42.5435C428.65 40.2432 427.628 35.5168 429.905 31.9768C432.186 28.4368 436.878 27.3915 440.43 29.6536C441.952 30.6188 477.646 53.999 477.646 111.616C477.646 115.843 474.22 119.269 469.994 119.269Z" fill="#1E3443"/>
<path d="M66.7812 163.145C62.5545 163.145 59.1289 159.716 59.1289 155.493C59.1289 106.73 75.7801 74.3657 89.7457 55.8034C105.096 35.41 120.587 26.7087 121.24 26.3501C124.94 24.3055 129.598 25.6482 131.642 29.3485C133.683 33.0411 132.348 37.6874 128.663 39.7359C128.362 39.9076 114.823 47.701 101.499 65.6491C83.5392 89.8458 74.4373 120.073 74.4373 155.493C74.4335 159.716 71.0079 163.145 66.7812 163.145Z" fill="#1E3443"/>
<path d="M33.1093 119.268C28.8826 119.268 25.457 115.843 25.457 111.616C25.457 53.9989 61.155 30.6187 62.6732 29.6535C66.24 27.3838 70.9702 28.4366 73.2399 31.9996C75.502 35.5549 74.4644 40.2698 70.9206 42.5434C69.6503 43.375 40.7616 62.8033 40.7616 111.616C40.7616 115.843 37.336 119.268 33.1093 119.268Z" fill="#1E3443"/>
</g>
<defs>
<clipPath id="clip0_3483_1022">
<rect width="500" height="500" fill="white" transform="translate(0.664062 0.333984)"/>
</clipPath>
</defs>
</svg>
