<svg width="516" height="517" viewBox="0 0 516 517" fill="none" xmlns="http://www.w3.org/2000/svg">
<g clip-path="url(#clip0_3483_1054)">
<path d="M373.96 30.499H345.33V55.499C345.33 80.309 325.14 100.499 300.33 100.499H90.64C65.83 100.499 45.64 80.309 45.64 55.499V30.499H17C8.72 30.499 2 37.219 2 45.499V497.499C2 505.779 8.72 512.499 17 512.499H258.51V405.379H183.99C175.7 405.379 168.99 398.659 168.99 390.379C168.99 382.099 175.7 375.379 183.99 375.379H258.51V322.379H183.99C175.7 322.379 168.99 315.659 168.99 307.379C168.99 299.099 175.7 292.379 183.99 292.379H259.28C263.1 272.259 280.82 257.009 302.03 257.009H388.96V45.499C388.96 37.219 382.24 30.499 373.96 30.499ZM134.41 400.989L101.53 433.879C100.82 434.579 96.99 438.269 90.92 438.269C84.85 438.269 81.02 434.579 80.31 433.879L59.5 413.059C53.64 407.209 53.64 397.709 59.5 391.849C65.36 385.989 74.86 385.989 80.71 391.849L90.92 402.059L113.2 379.779C119.06 373.919 128.55 373.919 134.41 379.779C140.27 385.629 140.27 395.129 134.41 400.989ZM134.41 317.989L101.53 350.879C100.82 351.579 96.99 355.269 90.92 355.269C84.85 355.269 81.02 351.579 80.31 350.879L59.5 330.059C53.68 324.249 53.68 314.669 59.5 308.849C65.32 303.029 74.9 303.029 80.71 308.849L90.92 319.059L113.2 296.779C119.06 290.919 128.55 290.919 134.41 296.779C140.27 302.629 140.27 312.129 134.41 317.989ZM134.41 234.989L101.53 267.879C100.82 268.579 96.99 272.269 90.92 272.269C84.85 272.269 81.02 268.579 80.31 267.879L59.5 247.059C53.68 241.249 53.68 231.669 59.5 225.849C65.32 220.029 74.9 220.029 80.71 225.849L90.92 236.059L113.2 213.779C119.06 207.919 128.55 207.919 134.41 213.779C140.27 219.629 140.27 229.129 134.41 234.989ZM320.85 239.379H183.99C175.71 239.379 168.99 232.669 168.99 224.379C168.99 216.099 175.71 209.379 183.99 209.379H320.85C329.08 209.379 335.85 216.149 335.85 224.379C335.85 232.609 329.08 239.379 320.85 239.379Z" fill="#1E3443"/>
<path d="M300.331 0.499023H90.6406C82.3606 0.499023 75.6406 7.21902 75.6406 15.499V55.499C75.6406 63.779 82.3606 70.499 90.6406 70.499H300.331C308.611 70.499 315.331 63.779 315.331 55.499V15.499C315.331 7.21902 308.611 0.499023 300.331 0.499023Z" fill="#1E3443"/>
<path d="M392.46 360.009L381.67 367.809V291.009H420.83V367.809L410.04 360.009C404.8 356.209 397.71 356.209 392.46 360.009Z" fill="#1E3443"/>
<path d="M514 304.529V502.979C514 510.439 507.94 516.499 500.48 516.499C500.48 516.499 326.09 516.499 288.51 516.499V304.529C288.51 297.069 294.57 291.009 302.03 291.009H351.67V397.169C351.67 402.809 354.83 407.959 359.85 410.529C362 411.629 364.34 412.169 366.67 412.169C369.77 412.169 372.86 411.209 375.46 409.329L401.25 390.669L427.04 409.329C431.61 412.629 437.64 413.089 442.66 410.529C447.68 407.959 450.83 402.809 450.83 397.169V291.009H500.48C507.94 291.009 514 297.069 514 304.529Z" fill="#1E3443"/>
</g>
<defs>
<clipPath id="clip0_3483_1054">
<rect width="516" height="516" fill="white" transform="translate(0 0.499023)"/>
</clipPath>
</defs>
</svg>
