<svg width="500" height="501" viewBox="0 0 500 501" fill="none" xmlns="http://www.w3.org/2000/svg">
<g clip-path="url(#clip0_3483_1092)">
<path d="M485.349 392.099H449.597L435.583 354.726C433.445 349.013 427.976 345.224 421.873 345.224C415.769 345.224 410.3 349.013 408.162 354.726L394.148 392.099H359.373C353.27 392.099 347.811 395.878 345.662 401.591C343.514 407.304 345.135 413.749 349.725 417.772L375.975 440.741L361.248 480.789C359.158 486.473 360.779 492.85 365.32 496.844C369.871 500.848 376.404 501.629 381.766 498.836L421.873 477.947L461.98 498.836C467.392 501.653 473.921 500.817 478.425 496.844C482.966 492.85 484.587 486.473 482.497 480.789L467.819 440.877L494.841 417.909C499.518 413.925 501.218 407.45 499.098 401.688C496.978 395.927 491.491 392.099 485.349 392.099Z" fill="#1E3443"/>
<path d="M312.499 392.099H277.724L263.71 354.726C261.572 349.013 256.103 345.224 250 345.224C243.896 345.224 238.427 349.013 236.289 354.726L222.275 392.099H187.5C181.397 392.099 175.938 395.878 173.789 401.591C171.641 407.304 173.262 413.749 177.852 417.772L204.102 440.741L189.375 480.789C187.285 486.473 188.906 492.85 193.447 496.844C197.998 500.848 204.531 501.629 209.893 498.836L250 477.947L290.107 498.836C295.519 501.653 302.048 500.817 306.552 496.844C311.093 492.85 312.714 486.473 310.624 480.789L295.898 440.741L322.147 417.772C326.737 413.749 328.358 407.304 326.21 401.591C324.061 395.878 318.602 392.099 312.499 392.099Z" fill="#1E3443"/>
<path d="M140.626 392.099H105.851L91.8375 354.726C89.6988 349.013 84.2301 345.224 78.1267 345.224C72.0232 345.224 66.5545 349.013 64.4159 354.726L50.4024 392.099H14.6508C8.50823 392.099 3.02 395.927 0.900884 401.688C-1.21824 407.45 0.480967 413.925 5.15866 417.909L32.1799 440.877L17.5023 480.789C15.4125 486.473 17.0335 492.85 21.5745 496.844C26.1252 500.848 32.6584 501.629 38.0197 498.836L78.1267 477.947C120.99 500.271 120.127 500.496 125.001 500.496C128.488 500.496 131.945 499.256 134.679 496.844C139.22 492.85 140.841 486.473 138.751 480.789L124.025 440.741L150.274 417.772C154.864 413.749 156.485 407.304 154.337 401.591C152.188 395.878 146.73 392.099 140.626 392.099Z" fill="#1E3443"/>
<path d="M456.052 0.500977H43.9468C19.7186 0.500977 0.00195312 20.2176 0.00195312 44.4459V236.827C0.00195312 261.055 19.7186 280.772 43.9468 280.772H204.873L239.638 315.547C242.5 318.408 246.25 319.834 249.999 319.834C253.749 319.834 257.499 318.408 260.361 315.547L295.126 280.772H456.052C480.28 280.772 499.997 261.055 499.997 236.827V44.4459C499.997 20.2176 480.28 0.500977 456.052 0.500977ZM195.313 218.272H85.9386C77.8488 218.272 71.2903 211.714 71.2903 203.624C71.2903 195.534 77.8488 188.976 85.9386 188.976H195.313C203.402 188.976 209.961 195.534 209.961 203.624C209.961 211.714 203.402 218.272 195.313 218.272ZM414.06 155.773H85.9386C77.8488 155.773 71.2903 149.214 71.2903 141.125C71.2903 133.035 77.8488 126.476 85.9386 126.476H414.06C422.15 126.476 428.709 133.035 428.709 141.125C428.709 149.214 422.15 155.773 414.06 155.773ZM414.06 93.2735H85.9386C77.8488 93.2735 71.2903 86.715 71.2903 78.6252C71.2903 70.5354 77.8488 63.9769 85.9386 63.9769H414.06C422.15 63.9769 428.709 70.5354 428.709 78.6252C428.709 86.715 422.15 93.2735 414.06 93.2735Z" fill="#1E3443"/>
</g>
<defs>
<clipPath id="clip0_3483_1092">
<rect width="500" height="500" fill="white" transform="translate(0 0.499023)"/>
</clipPath>
</defs>
</svg>
