<svg width="501" height="501" viewBox="0 0 501 501" fill="none" xmlns="http://www.w3.org/2000/svg">
<path d="M330.586 333.079C330.586 333.079 329.961 333.079 329.727 333.079V341.204L328.945 348.626C421.211 359.251 469.492 385.97 469.492 406.829C469.492 435.892 384.883 467.845 258.633 469.251C256.055 469.251 253.32 469.251 250.742 469.251C248.164 469.251 245.43 469.251 242.617 469.251C116.602 467.845 31.9922 435.892 31.9922 406.829C31.9922 385.97 80.2734 359.329 172.539 348.626L171.68 341.204V333.079C171.68 333.079 171.055 333.079 170.742 333.079C96.0547 341.673 16.2891 365.579 16.2891 406.751C16.2891 455.813 132.773 483.626 242.305 484.798H250.664C250.664 484.798 256.289 484.798 258.945 484.798C368.555 483.626 485.039 455.813 485.039 406.751C485.039 365.501 405.273 341.673 330.586 333.079Z" fill="#1E3443"/>
<path d="M305.352 102.063H266.289V148.938L250.664 141.126L235.039 148.938V102.063H195.977V195.813H305.352V102.063Z" fill="#1E3443"/>
<path d="M243.634 433.626C244.962 436.282 247.697 438.001 250.665 438.001C253.634 438.001 256.369 436.282 257.697 433.626L369.415 207.923C393.869 156.907 386.056 98.9385 349.65 60.2666C322.775 31.751 287.697 16.0479 250.665 16.0479C213.634 16.0479 178.556 31.751 151.681 60.2666C115.275 98.9385 107.54 156.907 131.915 207.923C156.29 258.938 243.556 433.626 243.556 433.626H243.634ZM250.665 63.001C298.165 63.001 336.603 101.438 336.603 148.938C336.603 196.438 298.165 234.876 250.665 234.876C203.165 234.876 164.728 196.438 164.728 148.938C164.728 101.438 203.165 63.001 250.665 63.001Z" fill="#1E3443"/>
</svg>
