<svg id="Layer_1" enable-background="new 0 0 34 34" height="512" viewBox="0 0 34 34" width="512" xmlns="http://www.w3.org/2000/svg"><g><g><path d="m28.2 33h-22.4c-1 0-1.8-.8-1.8-1.8v-28.4c0-1 .8-1.8 1.8-1.8h22.4c1 0 1.8.8 1.8 1.8v28.3c0 1.1-.8 1.9-1.8 1.9z" fill="#faf0b6"/></g><g><path d="m28.2 34h-22.4c-1.6 0-2.8-1.3-2.8-2.8v-28.4c0-1.5 1.2-2.8 2.8-2.8h22.4c1.6 0 2.8 1.3 2.8 2.8v28.3c0 1.6-1.2 2.9-2.8 2.9zm-22.4-32c-.5 0-.8.4-.8.8v28.3c0 .5.3.9.8.9h22.4c.5 0 .8-.4.8-.8v-28.4c0-.4-.3-.8-.8-.8z" fill="#020202"/></g><g><path d="m24 8.4h-14c-.6 0-1-.4-1-1s.4-1 1-1h14c.6 0 1 .4 1 1s-.5 1-1 1z" fill="#020202"/></g><g><path d="m24 14.2h-14c-.6 0-1-.4-1-1s.4-1 1-1h14c.6 0 1 .4 1 1s-.5 1-1 1z" fill="#020202"/></g><g><path d="m24 20h-14c-.6 0-1-.4-1-1s.4-1 1-1h14c.6 0 1 .4 1 1s-.5 1-1 1z" fill="#020202"/></g><g><path d="m15.7 29.2c-.3-.1-.6-.3-.7-.6l-1.1-2.4c-.2-.5 0-1.1.5-1.3s1.1 0 1.3.5l.5 1.1 3.7-3.7c.4-.4 1-.4 1.4 0s.4 1 0 1.4l-4.7 4.8c-.3.2-.6.3-.9.2z" fill="#020202"/></g><g opacity=".1"><path d="m20.9 1c-7.3 4.4-12.6 16.9-13.2 32h-1.9c-1 0-1.9-.8-1.9-1.9v-28.2c.1-1.1.9-1.9 1.9-1.9z" fill="#020202"/></g></g></svg>