<svg width="512" height="513" viewBox="0 0 512 513" fill="none" xmlns="http://www.w3.org/2000/svg">
<g clip-path="url(#clip0_3483_1062)">
<path d="M436 0.500977H196C171.187 0.500977 151 20.688 151 45.501V302.501H196C220.853 302.501 241 322.648 241 347.501V422.501H481V45.501C481 20.688 460.813 0.500977 436 0.500977ZM286 45.501H346C354.284 45.501 361 52.217 361 60.501C361 68.785 354.284 75.501 346 75.501H286C277.716 75.501 271 68.785 271 60.501C271 52.217 277.716 45.501 286 45.501ZM376.011 261.196L328.02 325.475C322.021 333.51 309.98 333.51 303.981 325.475L255.99 261.196C219.114 211.805 254.361 141.501 316 141.501C377.639 141.501 412.886 211.805 376.011 261.196Z" fill="#1E3443"/>
<path d="M241 512.501H436C460.813 512.501 481 492.314 481 467.501V452.501H241V512.501Z" fill="#1E3443"/>
<path d="M106 332.501H136V377.501H106V332.501Z" fill="#1E3443"/>
<path d="M196 332.501H166V392.501C166 400.785 159.284 407.501 151 407.501H91C82.716 407.501 76 400.785 76 392.501V332.501H46C37.716 332.501 31 339.217 31 347.501V497.501C31 505.785 37.716 512.501 46 512.501H211V347.501C211 339.217 204.284 332.501 196 332.501Z" fill="#1E3443"/>
<path d="M316 171.501C279.052 171.501 257.924 213.643 280.029 243.249L316 291.428L351.971 243.248C374.076 213.643 352.948 171.501 316 171.501ZM316 231.501C307.716 231.501 301 224.785 301 216.501C301 208.217 307.716 201.501 316 201.501C324.284 201.501 331 208.217 331 216.501C331 224.785 324.284 231.501 316 231.501Z" fill="#1E3443"/>
</g>
<defs>
<clipPath id="clip0_3483_1062">
<rect width="512" height="512" fill="white" transform="translate(0 0.500977)"/>
</clipPath>
</defs>
</svg>
