<svg width="513" height="513" viewBox="0 0 513 513" fill="none" xmlns="http://www.w3.org/2000/svg">
<path d="M196.072 333.303C184.788 322.046 169.499 315.724 153.56 315.724C137.62 315.724 122.332 322.046 111.048 333.303L109.88 334.471L108.712 333.303C97.4277 322.046 82.1392 315.724 66.1998 315.724C50.2605 315.724 34.9719 322.046 23.6878 333.303C12.3495 346.052 6.01176 362.475 5.84704 379.535C5.68232 396.596 11.7018 413.138 22.7918 426.103C63.9598 474.727 93.1918 499.383 109.88 499.383C126.568 499.383 155.816 474.727 196.072 427.079C207.858 414.346 214.178 397.495 213.672 380.151C214.155 362.835 207.837 346.018 196.072 333.303Z" fill="#1E3443"/>
<path d="M432.664 16.5029H144.664C131.945 16.5409 119.758 21.6102 110.765 30.6038C101.771 39.5973 96.702 51.7842 96.6641 64.5029V305.943C101.311 308.039 105.756 310.556 109.944 313.463C124.596 303.209 142.389 298.439 160.206 299.989C178.022 301.54 194.724 309.312 207.384 321.943C222.171 337.674 230.162 358.6 229.624 380.183C230.192 401.771 222.197 422.708 207.384 438.423C190.379 459.579 171.356 479.031 150.584 496.503H432.664C445.383 496.465 457.57 491.396 466.563 482.402C475.557 473.409 480.626 461.222 480.664 448.503V64.5029C480.626 51.7842 475.557 39.5973 466.563 30.6038C457.57 21.6102 445.383 16.5409 432.664 16.5029ZM192.664 248.503C187.917 248.503 183.277 247.095 179.33 244.458C175.384 241.821 172.307 238.073 170.491 233.687C168.674 229.302 168.199 224.476 169.125 219.821C170.051 215.165 172.337 210.889 175.693 207.532C179.05 204.176 183.326 201.89 187.982 200.964C192.637 200.038 197.463 200.513 201.848 202.33C206.234 204.146 209.982 207.222 212.619 211.169C215.256 215.116 216.664 219.756 216.664 224.503C216.664 230.868 214.136 236.973 209.635 241.473C205.134 245.974 199.029 248.503 192.664 248.503ZM192.664 152.503C187.917 152.503 183.277 151.095 179.33 148.458C175.384 145.821 172.307 142.073 170.491 137.687C168.674 133.302 168.199 128.476 169.125 123.821C170.051 119.165 172.337 114.889 175.693 111.532C179.05 108.176 183.326 105.89 187.982 104.964C192.637 104.038 197.463 104.513 201.848 106.33C206.234 108.146 209.982 111.222 212.619 115.169C215.256 119.116 216.664 123.756 216.664 128.503C216.664 134.868 214.136 140.973 209.635 145.473C205.134 149.974 199.029 152.503 192.664 152.503ZM384.664 336.503H256.664C252.421 336.503 248.351 334.817 245.35 331.817C242.35 328.816 240.664 324.746 240.664 320.503C240.664 316.259 242.35 312.19 245.35 309.189C248.351 306.189 252.421 304.503 256.664 304.503H384.664C388.908 304.503 392.977 306.189 395.978 309.189C398.978 312.19 400.664 316.259 400.664 320.503C400.664 324.746 398.978 328.816 395.978 331.817C392.977 334.817 388.908 336.503 384.664 336.503ZM384.664 240.503H256.664C252.421 240.503 248.351 238.817 245.35 235.817C242.35 232.816 240.664 228.746 240.664 224.503C240.664 220.259 242.35 216.19 245.35 213.189C248.351 210.189 252.421 208.503 256.664 208.503H384.664C388.908 208.503 392.977 210.189 395.978 213.189C398.978 216.19 400.664 220.259 400.664 224.503C400.664 228.746 398.978 232.816 395.978 235.817C392.977 238.817 388.908 240.503 384.664 240.503ZM384.664 144.503H256.664C252.421 144.503 248.351 142.817 245.35 139.817C242.35 136.816 240.664 132.746 240.664 128.503C240.664 124.259 242.35 120.19 245.35 117.189C248.351 114.189 252.421 112.503 256.664 112.503H384.664C388.908 112.503 392.977 114.189 395.978 117.189C398.978 120.19 400.664 124.259 400.664 128.503C400.664 132.746 398.978 136.816 395.978 139.817C392.977 142.817 388.908 144.503 384.664 144.503Z" fill="#1E3443"/>
</svg>
