<svg width="500" height="500" viewBox="0 0 500 500" fill="none" xmlns="http://www.w3.org/2000/svg">
<g clip-path="url(#clip0_3480_491)">
<path d="M249.989 0C111.937 0 0 111.937 0 249.989C0 388.042 111.937 500 249.989 500C388.042 500 500 388.042 500 249.989C500 111.937 388.042 0 249.989 0ZM302.032 387.45C289.164 392.529 278.921 396.381 271.238 399.048C263.577 401.714 254.667 403.048 244.529 403.048C228.952 403.048 216.825 399.238 208.19 391.64C199.556 384.042 195.259 374.413 195.259 362.709C195.259 358.159 195.577 353.503 196.212 348.762C196.868 344.021 197.905 338.688 199.323 332.698L215.429 275.81C216.847 270.349 218.074 265.164 219.048 260.339C220.021 255.471 220.487 251.005 220.487 246.942C220.487 239.704 218.984 234.624 216 231.767C212.974 228.91 207.28 227.513 198.794 227.513C194.645 227.513 190.37 228.127 185.989 229.418C181.651 230.751 177.884 231.958 174.794 233.143L179.048 215.619C189.587 211.323 199.683 207.64 209.312 204.593C218.942 201.503 228.042 199.979 236.614 199.979C252.085 199.979 264.021 203.746 272.423 211.196C280.783 218.667 284.995 228.381 284.995 240.317C284.995 242.794 284.698 247.153 284.127 253.376C283.556 259.619 282.476 265.312 280.91 270.54L264.889 327.259C263.577 331.81 262.413 337.016 261.354 342.836C260.317 348.656 259.81 353.101 259.81 356.085C259.81 363.619 261.481 368.762 264.868 371.492C268.212 374.222 274.074 375.598 282.37 375.598C286.286 375.598 290.667 374.899 295.619 373.545C300.529 372.19 304.085 370.984 306.328 369.947L302.032 387.45ZM299.196 157.228C291.725 164.169 282.73 167.64 272.212 167.64C261.714 167.64 252.656 164.169 245.122 157.228C237.63 150.286 233.841 141.841 233.841 131.979C233.841 122.138 237.651 113.672 245.122 106.667C252.656 99.6402 261.714 96.1481 272.212 96.1481C282.73 96.1481 291.746 99.6402 299.196 106.667C306.667 113.672 310.413 122.138 310.413 131.979C310.413 141.862 306.667 150.286 299.196 157.228Z" fill="#1E3443"/>
</g>
<defs>
<clipPath id="clip0_3480_491">
<rect width="500" height="500" fill="white"/>
</clipPath>
</defs>
</svg>
