<svg width="500" height="500" viewBox="0 0 500 500" fill="none" xmlns="http://www.w3.org/2000/svg">
<path fill-rule="evenodd" clip-rule="evenodd" d="M279.611 28.4583L309.382 50.7434C317.525 56.8381 326.095 59.9573 336.25 60.5227L373.38 62.5881C395.614 63.8245 413.671 78.9758 418.749 100.657L427.232 136.865C429.551 146.768 434.112 154.666 441.528 161.626L468.644 187.076C484.88 202.315 488.973 225.529 478.928 245.402L462.152 278.59C457.564 287.667 455.98 296.649 457.187 306.747L461.601 343.673C464.244 365.783 452.457 386.197 431.989 394.963L397.803 409.604C388.453 413.608 381.467 419.47 375.901 427.982L355.546 459.105C343.359 477.74 321.208 485.802 299.894 479.361L264.296 468.603C254.561 465.66 245.441 465.66 235.704 468.603L200.107 479.361C178.792 485.802 156.642 477.74 144.454 459.105L124.1 427.982C118.533 419.47 111.546 413.608 102.198 409.604L68.0101 394.961C47.5414 386.195 35.7552 365.782 38.3978 343.671L42.8119 306.745C44.0189 296.647 42.4349 287.665 37.847 278.588L21.0707 245.4C11.0258 225.528 15.1185 202.314 31.3549 187.074L58.4711 161.624C65.8871 154.664 70.4467 146.766 72.766 136.864L81.2484 100.656C86.3265 78.9749 104.384 63.8235 126.618 62.5862L163.747 60.5208C173.903 59.9563 182.473 56.8362 190.616 50.7415L220.387 28.4563C238.212 15.1145 261.785 15.1145 279.611 28.4583ZM231.007 262.754L198.699 230.446C190.325 222.072 176.742 222.072 168.369 230.446C159.995 238.82 159.995 252.402 168.369 260.776L215.889 308.295C224.263 316.668 237.846 316.669 246.219 308.295C274.862 279.652 303.18 250.687 331.691 221.912C340.004 213.522 339.978 199.983 331.598 191.65C323.217 183.315 309.639 183.338 301.317 191.743L231.007 262.754ZM249.998 90.2874C205.896 90.2874 165.967 108.164 137.065 137.067C108.162 165.97 90.2855 205.898 90.2855 250C90.2855 294.103 108.162 334.032 137.065 362.934C165.967 391.836 205.896 409.713 249.998 409.713C294.101 409.713 334.03 391.836 362.932 362.934C391.834 334.032 409.711 294.103 409.711 250C409.711 205.898 391.834 165.969 362.932 137.067C334.03 108.164 294.101 90.2874 249.998 90.2874ZM351.884 148.115C325.81 122.04 289.787 105.912 249.998 105.912C210.209 105.912 174.187 122.04 148.113 148.115C122.038 174.189 105.911 210.211 105.911 250C105.911 289.789 122.038 325.812 148.113 351.886C174.187 377.96 210.209 394.088 249.998 394.088C289.787 394.088 325.81 377.96 351.884 351.887C377.958 325.813 394.085 289.79 394.085 250.001C394.086 210.211 377.958 174.189 351.884 148.115Z" fill="#1E3443"/>
</svg>
