<svg width="500" height="500" viewBox="0 0 500 500" fill="none" xmlns="http://www.w3.org/2000/svg">
<path d="M193.391 139.146V232.215H250.165C249.384 229.365 248.96 226.37 248.96 223.276C248.96 204.596 264.157 189.399 282.837 189.399C301.517 189.399 316.714 204.596 316.714 223.276C316.714 235.261 310.453 245.805 301.034 251.828V283.033L379.424 186.654L398.771 202.391L301.034 322.556V394.397H462.808V139.146H193.391ZM373.897 347.622C355.217 347.622 340.02 332.425 340.02 313.744C340.02 295.064 355.217 279.867 373.897 279.867C392.577 279.867 407.774 295.064 407.774 313.744C407.775 332.424 392.578 347.622 373.897 347.622Z" fill="#1E3443"/>
<path d="M373.896 304.806C368.967 304.806 364.957 308.815 364.957 313.744C364.957 318.673 368.967 322.683 373.896 322.683C378.825 322.683 382.834 318.673 382.834 313.744C382.834 308.815 378.825 304.806 373.896 304.806Z" fill="#1E3443"/>
<path d="M231.416 257.153V277.174C231.416 302.4 210.893 322.922 185.667 322.922C160.441 322.922 139.918 302.399 139.918 277.174V257.153H37.1875V462.81H276.095V257.153H231.416Z" fill="#1E3443"/>
<path d="M164.855 277.174C164.855 288.649 174.191 297.984 185.666 297.984C197.141 297.984 206.476 288.649 206.476 277.174V257.153H164.855V277.174Z" fill="#1E3443"/>
<path d="M291.775 223.276C291.775 218.348 287.765 214.338 282.837 214.338C277.909 214.338 273.898 218.348 273.898 223.276C273.898 228.205 277.909 232.215 282.837 232.215C287.765 232.214 291.775 228.204 291.775 223.276Z" fill="#1E3443"/>
<path d="M301.031 419.336H462.805V462.81H301.031V419.336Z" fill="#1E3443"/>
<path d="M95.0675 212.195C95.0675 200.72 104.403 191.384 115.878 191.384C127.353 191.384 136.688 200.72 136.688 212.195V232.215H161.627V212.195C161.627 186.969 141.104 166.446 115.878 166.446C90.6517 166.446 70.1289 186.969 70.1289 212.195V232.215H95.0675V212.195Z" fill="#1E3443"/>
<path d="M301.337 89.1559C301.337 74.2534 313.461 62.129 328.364 62.129C343.267 62.129 355.391 74.2534 355.391 89.1559V114.208H380.329V89.1559C380.329 60.5022 357.018 37.1904 328.364 37.1904C299.71 37.1904 276.398 60.5022 276.398 89.1559V114.208H301.337V89.1559Z" fill="#1E3443"/>
</svg>
