<svg clip-rule="evenodd" fill-rule="evenodd" stroke-linejoin="round" stroke-miterlimit="2" viewBox="0 0 48 48" xmlns="http://www.w3.org/2000/svg"><g transform="translate(-216 -360)"><g id="FLAT"><path d="m248.969 383.817c-.824 4.351-17.97 4.241-17.97-.33 0-4.684 4.033-8.487 9-8.487 1.57 0 3.046.38 4.331 1.047 1.585-2.427 4.428-4.047 7.67-4.047 4.967 0 9 3.803 9 8.487 0 2.877-6.792 3.987-12.031 3.33z" fill="#ffd321"/><path d="m231.03 383.817c-5.24.657-12.031-.453-12.031-3.33 0-4.684 4.033-8.487 9-8.487 3.242 0 6.085 1.62 7.67 4.047 1.285-.667 2.761-1.047 4.33-1.047 4.968 0 9 3.803 9 8.487 0 4.571-17.145 4.681-17.969.33z" fill="#00cb75"/><g transform="matrix(1.023 0 0 .986 142.769 362.614)"><path d="m91.601 43c.806 0 1.461-.676 1.466-1.512.009-1.977-.257-5.323-2.067-6.488-2.631-1.695-4.637-5.346-5-6s-2.66-1.191-2.5 1.5 2.49 5.613 3.5 6.5c0 0-6.283-2.78-8-5s-1.195-6.639-2-7-2.564-.78-2.5 2 .833 7.805 2.5 9c1.464 1.05 6.53 3.614 7.739 6.017.213.555.73.919 1.305.919 1.422.064 3.971.064 5.557.064z" fill="#ffbca7"/></g><g transform="matrix(-1.023 0 0 .986 337.232 362.614)"><path d="m91.601 43c.806 0 1.461-.676 1.466-1.512.009-1.977-.257-5.323-2.067-6.488-2.631-1.695-4.637-5.346-5-6s-2.66-1.191-2.5 1.5 2.49 5.613 3.5 6.5c0 0-6.283-2.78-8-5s-1.195-6.639-2-7-2.564-.78-2.5 2 .833 7.805 2.5 9c1.464 1.05 6.53 3.614 7.739 6.017.213.555.73.919 1.305.919 1.422.064 3.971.064 5.557.064z" fill="#ffbca7"/></g><g transform="matrix(1.333 0 0 1.257 -82.334 -93.982)"><path d="m241.75 373c3.725 0 6.75 3.025 6.75 6.75s-13.5 3.725-13.5 0 3.025-6.75 6.75-6.75z" fill="#d0004f"/></g><g transform="matrix(1.385 0 0 1.385 -91.27 -139.385)"><circle cx="239.25" cy="368.25" fill="#d0004f" r="3.25"/></g><g transform="matrix(1.385 0 0 1.385 -79.269 -142.385)"><circle cx="239.25" cy="368.25" fill="#ffd321" r="3.25"/></g><g transform="matrix(1.385 0 0 1.385 -103.27 -142.385)"><circle cx="239.25" cy="368.25" fill="#00cb75" r="3.25"/></g></g></g></svg>