<svg width="500" height="501" viewBox="0 0 500 501" fill="none" xmlns="http://www.w3.org/2000/svg">
<path d="M373.384 411.397L293.907 358.412C290.352 356.065 285.59 356.838 282.96 360.189L259.818 389.94C252.318 399.714 238.782 402.504 228.029 396.492L223.751 394.142C208.315 385.721 189.098 375.245 150.951 337.098C112.804 298.951 102.32 279.734 93.9073 264.29L91.5494 260.012C85.5377 249.261 88.3276 235.728 98.1008 228.231L127.844 205.081C131.199 202.453 131.972 197.689 129.621 194.134L76.6441 114.648C74.2346 111.042 69.4203 109.957 65.6965 112.181L32.4421 132.122C25.3077 136.286 20.0604 143.048 17.7984 150.993C6.87657 190.766 16.064 260.407 121.84 366.192C227.616 471.977 297.241 481.181 337.047 470.25C344.994 467.985 351.755 462.735 355.919 455.597L375.851 422.343C378.081 418.622 376.995 413.805 373.384 411.397Z" fill="#1E3443"/>
<path d="M484.398 28.8926C483.527 28.0213 482.34 27.5377 481.108 27.5516H128.268C127.035 27.5377 125.849 28.0213 124.978 28.8926C124.106 29.7639 123.623 30.9502 123.637 32.1826V154.776L143.645 184.788C150.861 195.692 148.489 210.309 138.197 218.371L108.479 241.521C105.298 243.934 104.373 248.318 106.306 251.812L108.731 256.233C116.464 270.938 125.895 284.686 136.832 297.193H481.108C483.634 297.211 485.702 295.189 485.74 292.662V32.1826C485.754 30.9502 485.27 29.7639 484.398 28.8926ZM245.143 182.043V182L158.879 274.421C155.707 277.823 150.377 278.009 146.976 274.838C143.574 271.666 143.388 266.337 146.559 262.935L232.823 170.557C235.995 167.155 241.324 166.969 244.726 170.14C248.128 173.312 248.315 178.641 245.143 182.043ZM304.688 175.407C298.619 175.435 292.706 173.484 287.846 169.85L147.098 63.1215C143.391 60.2985 142.675 55.0052 145.498 51.298C148.321 47.5917 153.614 46.8751 157.321 49.6981L298.011 156.426C301.993 159.319 307.385 159.319 311.367 156.426L452.098 49.6981C455.804 46.8871 461.088 47.6129 463.9 51.3192C466.712 55.0255 465.985 60.3095 462.279 63.1215L321.53 169.85C316.67 173.484 310.758 175.435 304.688 175.407ZM462.936 274.834C461.303 276.36 459.13 277.173 456.896 277.096C454.663 277.018 452.552 276.057 451.028 274.422L364.772 182.001C361.842 178.566 362.142 173.432 365.451 170.362C368.761 167.291 373.904 167.378 377.109 170.557L463.348 262.935C466.519 266.335 466.334 271.661 462.936 274.834Z" fill="#1E3443"/>
</svg>
