<svg id="Artboard_30" enable-background="new 0 0 64 64" height="512" viewBox="0 0 64 64" width="512" xmlns="http://www.w3.org/2000/svg"><g><path d="m41 43c0-1.731 0-7 5-7h10v-6c0-2.757-2.243-5-5-5h-43c-2.757 0-5 2.243-5 5v26c0 2.757 2.243 5 5 5h43c2.757 0 5-2.243 5-5v-6h-10c-5 0-5-5.269-5-7z"/><path d="m43 23v-6.062c0-1.033-.539-1.97-1.442-2.506-.936-.556-2.066-.575-3.021-.054l-17.291 8.622z"/><circle cx="49" cy="43" r="2"/><path d="m34 14.406v-4.257c0-1.521-.936-2.487-1.811-2.884-1.062-.482-2.226-.304-3.114.475l-17.416 15.26h5.106z"/><path d="m58 38h-12c-1.801 0-3 .851-3 5s1.199 5 3 5h12c1.654 0 3-1.346 3-3v-4c0-1.654-1.346-3-3-3zm-9 9c-2.206 0-4-1.794-4-4s1.794-4 4-4 4 1.794 4 4-1.794 4-4 4z"/><path d="m61.779 8.798-4.6-6.188c-.596-.802-1.798-.802-2.394.001l-4.572 6.157c-.455.455-.133 1.232.51 1.232h2.258c.611 2.996-.735 6.052-3.357 7.625l-.624.375 4 3 .176-.117c3.638-2.426 5.824-6.51 5.824-10.883h2.281c.628 0 .942-.758.498-1.202z"/></g></svg>