<svg width="500" height="501" viewBox="0 0 500 501" fill="none" xmlns="http://www.w3.org/2000/svg">
<g clip-path="url(#clip0_3480_469)">
<path d="M486.519 218.142C486.508 218.131 486.496 218.12 486.485 218.108L282.525 14.1553C273.831 5.45776 262.272 0.666504 249.978 0.666504C237.683 0.666504 226.124 5.45395 217.427 14.1515L13.5732 218.001C13.5045 218.07 13.4359 218.142 13.3672 218.211C-4.48557 236.167 -4.45505 265.3 13.455 283.21C21.6375 291.396 32.4445 296.138 43.9992 296.634C44.4684 296.679 44.9415 296.702 45.4183 296.702H53.5474V446.799C53.5474 476.5 77.7135 500.667 107.422 500.667H187.218C195.305 500.667 201.867 494.109 201.867 486.018V368.342C201.867 354.789 212.891 343.764 226.445 343.764H273.51C287.064 343.764 298.089 354.789 298.089 368.342V486.018C298.089 494.109 304.646 500.667 312.737 500.667H392.533C422.242 500.667 446.408 476.5 446.408 446.799V296.702H453.946C466.237 296.702 477.795 291.915 486.496 283.217C504.426 265.277 504.433 236.094 486.519 218.142Z" fill="#1E3443"/>
</g>
<defs>
<clipPath id="clip0_3480_469">
<rect width="500" height="500" fill="white" transform="translate(0 0.666504)"/>
</clipPath>
</defs>
</svg>
