<?xml version="1.0" encoding="UTF-8"?>
<svg xmlns="http://www.w3.org/2000/svg" viewBox="0 0 64 64" width="512" height="512"><g id="Ikon"><path d="M55,7v4a3.0033,3.0033,0,0,1-3,3H39V4H52A3.0033,3.0033,0,0,1,55,7ZM21,4V14H37V4ZM19,4H6A3.0033,3.0033,0,0,0,3,7v4a3.0033,3.0033,0,0,0,3,3H19Zm5.3853,25.92,4.2294-1.7656a1.0013,1.0013,0,0,1,.7706,0L33.6147,29.92A1.0047,1.0047,0,0,0,35,28.9976V16H23V28.9976A1.0046,1.0046,0,0,0,24.3853,29.92ZM61,46A14,14,0,1,1,47,32,14.0158,14.0158,0,0,1,61,46Zm-5-1a2.0023,2.0023,0,0,0-2-2H50V39a2.0023,2.0023,0,0,0-2-2H46a2.0023,2.0023,0,0,0-2,2v4H40a2.0023,2.0023,0,0,0-2,2v2a2.0023,2.0023,0,0,0,2,2h4v4a2.0023,2.0023,0,0,0,2,2h2a2.0023,2.0023,0,0,0,2-2V49h4a2.0023,2.0023,0,0,0,2-2ZM34.5316,56H8a3,3,0,0,1-3-3V16H21V28.9474a3.0193,3.0193,0,0,0,4.1558,2.8182L29,30.1606l3.8442,1.605A3.0251,3.0251,0,0,0,37,28.8937V16H53V31.1866A15.977,15.977,0,0,0,34.5316,56ZM30,44a3.0033,3.0033,0,0,0-3-3H12a3.0033,3.0033,0,0,0-3,3v2a3.0033,3.0033,0,0,0,3,3H27a3.0033,3.0033,0,0,0,3-3Z"/></g></svg>
