<?xml version="1.0" encoding="UTF-8"?>
<svg xmlns="http://www.w3.org/2000/svg" id="Layer_1" data-name="Layer 1" viewBox="0 0 48 48" width="512" height="512"><path d="M34,23A11,11,0,1,0,45,34,11.007,11.007,0,0,0,34,23Zm2,16H31a1,1,0,0,1,0-2h5a2,2,0,0,0,0-4H31.41l1.3,1.29a1.008,1.008,0,0,1,0,1.42,1.014,1.014,0,0,1-1.42,0l-3-3a.988.988,0,0,1-.21-.32.371.371,0,0,1-.04-.14.8.8,0,0,1,0-.5.371.371,0,0,1,.04-.14.988.988,0,0,1,.21-.32l3-3a1,1,0,0,1,1.42,1.42L31.41,31H36a4,4,0,0,1,0,8Z"/><path d="M36,3H30V16.54a2,2,0,0,1-3.59,1.21l-.11-.15c-.47-.62-.78-1-1.11-1-.43,0-.77.41-1.23,1.03A2.622,2.622,0,0,1,22,19a2.956,2.956,0,0,1-2.06-1.29c-.5-.54-1.02-1.11-1.54-1.11-.15,0-.31.05-.7.68A2,2,0,0,1,14,16.23V3H8A5,5,0,0,0,3,8V38a5,5,0,0,0,5,5H24.63A12.993,12.993,0,0,1,41,23.05V8A5,5,0,0,0,36,3ZM17,37H10a1,1,0,0,1,0-2h7a1,1,0,0,1,0,2Zm0-4H10a1,1,0,0,1,0-2h7a1,1,0,0,1,0,2Z"/><path d="M16,16.226v.016A2.836,2.836,0,0,1,18.4,14.6a4.236,4.236,0,0,1,3.018,1.758,7.681,7.681,0,0,0,.555.566c.118-.13.273-.336.385-.487A3.615,3.615,0,0,1,25.192,14.6a3.5,3.5,0,0,1,2.7,1.8l.1.139V3H16Z"/></svg>
