<svg width="500" height="501" viewBox="0 0 500 501" fill="none" xmlns="http://www.w3.org/2000/svg">
<g clip-path="url(#clip0_3480_486)">
<path d="M416.421 108.198C380.353 70.8899 333.674 47.1663 283.014 39.9495L297.453 25.51C303.174 19.7893 303.174 10.5149 297.453 4.79419C291.733 -0.925537 282.458 -0.925537 276.737 4.79419L239.641 41.8899C233.92 47.6096 233.92 56.885 239.641 62.6057L276.736 99.7014C279.597 102.562 283.346 103.992 287.094 103.992C290.842 103.992 294.592 102.562 297.451 99.7014C303.172 93.9817 303.172 84.7063 297.451 78.9856L289.155 70.6897C329.402 78.5657 366.315 98.5208 395.355 128.56C431.981 166.447 452.152 216.341 452.152 269.051C452.154 380.52 361.467 471.206 249.999 471.206C138.531 471.206 47.8438 380.52 47.8438 269.052C47.8438 226.518 60.8975 185.83 85.5947 151.389C109.779 117.661 143.119 92.4944 182.013 78.6096C189.632 75.8889 193.603 67.5081 190.883 59.8879C188.163 52.2688 179.78 48.2981 172.161 51.0178C127.627 66.9172 89.46 95.7219 61.7852 134.317C33.498 173.766 18.5469 220.357 18.5469 269.053C18.5469 330.876 42.6221 388.998 86.3379 432.714C130.054 476.427 188.176 500.503 249.999 500.503C311.822 500.503 369.944 476.428 413.66 432.713C457.376 388.997 481.451 330.875 481.451 269.052C481.451 208.702 458.355 151.576 416.421 108.198Z" fill="#1E3443"/>
<path d="M99.4961 269.052C99.4961 352.039 167.012 419.555 250 419.555C332.987 419.555 400.503 352.039 400.503 269.052C400.503 186.064 332.987 118.547 250 118.547C167.011 118.547 99.4961 186.063 99.4961 269.052ZM258.992 282.09C237.906 274.636 225.689 268.761 216.826 261.809C205.918 253.253 200.925 238.477 203.794 223.247C206.907 206.726 218.429 193.573 233.863 188.924C234.077 188.859 234.287 188.808 234.5 188.745V182.847C234.5 174.757 241.059 168.198 249.148 168.198C257.238 168.198 263.797 174.757 263.797 182.847V187.812C274.024 190.208 281.163 194.883 284.049 197.04C290.528 201.885 291.854 211.063 287.011 217.544C282.166 224.024 272.989 225.349 266.507 220.506C263.405 218.188 254.845 213.199 242.313 216.975C234.91 219.205 232.995 226.491 232.584 228.672C231.772 232.979 232.705 237.032 234.905 238.757C242.568 244.766 256.316 250.071 268.755 254.468C291.509 262.511 304.161 283.59 300.239 306.919C298.313 318.373 292.552 329.001 284.013 336.847C278.141 342.241 271.298 346.077 263.797 348.241V355.255C263.797 363.345 257.238 369.903 249.148 369.903C241.059 369.903 234.5 363.345 234.5 355.255V349.682C224.755 348.536 216.623 345.535 205.687 338.381C198.916 333.952 197.019 324.873 201.447 318.103C205.876 311.331 214.956 309.435 221.726 313.863C231.865 320.497 235.699 321.106 249.051 321.014C262.196 320.926 269.823 311.128 271.348 302.062C272.094 297.634 272.38 286.822 258.992 282.09Z" fill="#1E3443"/>
</g>
<defs>
<clipPath id="clip0_3480_486">
<rect width="500" height="500" fill="white" transform="translate(0 0.50293)"/>
</clipPath>
</defs>
</svg>
