<svg width="500" height="500" viewBox="0 0 500 500" fill="none" xmlns="http://www.w3.org/2000/svg">
<g clip-path="url(#clip0_3480_524)">
<path d="M472.563 195.708L433.396 190.729C430.167 180.792 426.187 171.208 421.542 162.104L445.729 130.958C455.521 118.354 454.375 100.563 443.188 89.7292L410.375 56.9167C399.438 45.625 381.646 44.5 369.021 54.2708L337.917 78.4583C328.812 73.8125 319.229 69.8333 309.271 66.6042L304.292 27.5C302.417 11.8125 289.104 0 273.333 0H226.667C210.896 0 197.583 11.8125 195.708 27.4375L190.729 66.6042C180.771 69.8333 171.188 73.7917 162.083 78.4583L130.958 54.2708C118.375 44.5 100.583 45.625 89.7292 56.8125L56.9167 89.6042C45.625 100.563 44.4792 118.354 54.2708 130.979L78.4583 162.104C73.7917 171.208 69.8333 180.792 66.6042 190.729L27.5 195.708C11.8125 197.583 0 210.896 0 226.667V273.333C0 289.104 11.8125 302.417 27.4375 304.292L66.6042 309.271C69.8333 319.208 73.8125 328.792 78.4583 337.896L54.2708 369.042C44.4792 381.646 45.625 399.438 56.8125 410.271L89.625 443.083C100.583 454.354 118.354 455.479 130.979 445.708L162.104 421.521C171.208 426.188 180.792 430.167 190.729 433.375L195.708 472.458C197.583 488.188 210.896 500 226.667 500H273.333C289.104 500 302.417 488.188 304.292 472.563L309.271 433.396C319.208 430.167 328.792 426.187 337.896 421.542L369.042 445.729C381.646 455.521 399.438 454.375 410.271 443.188L443.083 410.375C454.375 399.417 455.521 381.646 445.729 369.021L421.542 337.896C426.208 328.792 430.188 319.208 433.396 309.271L472.479 304.292C488.167 302.417 499.979 289.104 499.979 273.333V226.667C500 210.896 488.188 197.583 472.563 195.708ZM250 354.167C192.563 354.167 145.833 307.438 145.833 250C145.833 192.563 192.563 145.833 250 145.833C307.438 145.833 354.167 192.563 354.167 250C354.167 307.438 307.438 354.167 250 354.167Z" fill="#1E3443"/>
</g>
<defs>
<clipPath id="clip0_3480_524">
<rect width="500" height="500" fill="white"/>
</clipPath>
</defs>
</svg>
