<svg width="400" height="400" viewBox="0 0 400 400" fill="none" xmlns="http://www.w3.org/2000/svg">
<g clip-path="url(#clip0_3477_333)">
<path d="M397.223 110.394C394.997 107.766 391.726 106.25 388.281 106.25H353.125V47.6562C353.125 41.1844 347.878 35.9375 341.406 35.9375H322.823L326.255 32.5055C330.831 27.9289 330.831 20.5094 326.255 15.9328C321.679 11.357 314.259 11.357 309.682 15.9328L294.531 31.0836L279.38 15.932C274.804 11.3562 267.384 11.3562 262.807 15.932C258.23 20.5086 258.23 27.9281 262.807 32.5047L266.24 35.9375H247.656C241.184 35.9375 235.938 41.1844 235.938 47.6562V59.375H130.469C123.997 59.375 118.75 64.6219 118.75 71.0938V106.25H94.675L71.4625 21.1352C70.0711 16.0367 65.4414 12.5 60.1562 12.5H11.7188C5.24687 12.5 0 17.7469 0 24.2188C0 30.6906 5.24687 35.9375 11.7188 35.9375H51.2055L115.97 273.409C103.67 278.934 95.3125 291.245 95.3125 305.469C95.3125 321.659 106.316 335.32 121.235 339.386C119.637 343.399 118.75 347.768 118.75 352.344C118.75 371.729 134.521 387.5 153.906 387.5C173.291 387.5 189.062 371.729 189.062 352.344C189.062 348.236 188.348 344.293 187.047 340.625H284.828C283.527 344.293 282.812 348.236 282.812 352.344C282.812 371.729 298.584 387.5 317.969 387.5C337.354 387.5 353.125 371.729 353.125 352.344C353.125 332.959 337.354 317.188 317.969 317.188H130.469C124.007 317.188 118.75 311.93 118.75 305.469C118.75 299.419 123.277 294.406 129.28 293.809L365.859 270.27C371.026 269.834 375.516 265.859 376.404 260.52L399.841 119.895C400.407 116.498 399.449 113.023 397.223 110.394ZM259.375 59.375H329.688V106.25H259.375V59.375ZM142.188 82.8125H235.938V106.25H142.188V82.8125ZM374.448 129.688L354.759 247.82L139.136 269.274L101.067 129.688H374.448ZM165.625 352.344C165.625 358.805 160.368 364.062 153.906 364.062C147.445 364.062 142.188 358.805 142.188 352.344C142.188 345.882 147.445 340.625 153.906 340.625C160.368 340.625 165.625 345.882 165.625 352.344ZM317.969 364.062C311.507 364.062 306.25 358.805 306.25 352.344C306.25 345.882 311.507 340.625 317.969 340.625C324.43 340.625 329.688 345.882 329.688 352.344C329.688 358.805 324.43 364.062 317.969 364.062Z" fill="#1E3443"/>
<path d="M247.656 223.438C254.128 223.438 259.375 218.191 259.375 211.719V164.844C259.375 158.372 254.128 153.125 247.656 153.125C241.184 153.125 235.938 158.372 235.938 164.844V211.719C235.938 218.191 241.184 223.438 247.656 223.438Z" fill="#1E3443"/>
<path d="M317.969 223.438C324.441 223.438 329.688 218.191 329.688 211.719V164.844C329.688 158.372 324.441 153.125 317.969 153.125C311.497 153.125 306.25 158.372 306.25 164.844V211.719C306.25 218.191 311.497 223.438 317.969 223.438Z" fill="#1E3443"/>
<path d="M177.344 223.438C183.816 223.438 189.062 218.191 189.062 211.719V164.844C189.062 158.372 183.816 153.125 177.344 153.125C170.872 153.125 165.625 158.372 165.625 164.844V211.719C165.625 218.191 170.872 223.438 177.344 223.438Z" fill="#1E3443"/>
</g>
<defs>
<clipPath id="clip0_3477_333">
<rect width="400" height="400" fill="white"/>
</clipPath>
</defs>
</svg>
