<svg width="500" height="501" viewBox="0 0 500 501" fill="none" xmlns="http://www.w3.org/2000/svg">
<path fill-rule="evenodd" clip-rule="evenodd" d="M140.625 469.084H359.375C419.781 469.084 468.75 420.115 468.75 359.709C468.75 294.037 468.75 206.631 468.75 140.959C468.75 80.5527 419.781 31.584 359.375 31.584C293.703 31.584 206.297 31.584 140.625 31.584C80.2188 31.584 31.25 80.5527 31.25 140.959V359.709C31.25 420.115 80.2188 469.084 140.625 469.084ZM234.375 156.584H328.125C336.75 156.584 343.75 163.584 343.75 172.209V328.459C343.75 337.084 336.75 344.084 328.125 344.084C291.094 344.084 234.375 344.084 234.375 344.084C225.75 344.084 218.75 351.084 218.75 359.709C218.75 368.334 225.75 375.334 234.375 375.334H328.125C354.016 375.334 375 354.35 375 328.459C375 286.881 375 213.787 375 172.209C375 146.318 354.016 125.334 328.125 125.334C291.094 125.334 234.375 125.334 234.375 125.334C225.75 125.334 218.75 132.334 218.75 140.959C218.75 149.584 225.75 156.584 234.375 156.584ZM259.156 265.959L238.953 286.162C232.859 292.256 232.859 302.162 238.953 308.256C245.047 314.35 254.953 314.35 261.047 308.256L307.922 261.381C314.031 255.287 314.031 245.381 307.922 239.287L261.047 192.412C254.953 186.318 245.047 186.318 238.953 192.412C232.859 198.506 232.859 208.412 238.953 214.506L259.156 234.709H140.625C132 234.709 125 241.709 125 250.334C125 258.959 132 265.959 140.625 265.959H259.156Z" fill="#1E3443"/>
</svg>
