<svg width="500" height="501" viewBox="0 0 500 501" fill="none" xmlns="http://www.w3.org/2000/svg">
<path fill-rule="evenodd" clip-rule="evenodd" d="M140.625 469.253H359.375C419.781 469.253 468.75 420.284 468.75 359.878C468.75 294.206 468.75 206.8 468.75 141.128C468.75 80.7217 419.781 31.7529 359.375 31.7529C293.703 31.7529 206.297 31.7529 140.625 31.7529C80.2188 31.7529 31.25 80.7217 31.25 141.128V359.878C31.25 420.284 80.2188 469.253 140.625 469.253ZM234.375 156.753H328.125C336.75 156.753 343.75 163.753 343.75 172.378V328.628C343.75 337.253 336.75 344.253 328.125 344.253C291.094 344.253 234.375 344.253 234.375 344.253C225.75 344.253 218.75 351.253 218.75 359.878C218.75 368.503 225.75 375.503 234.375 375.503H328.125C354.016 375.503 375 354.519 375 328.628C375 287.05 375 213.956 375 172.378C375 146.487 354.016 125.503 328.125 125.503C291.094 125.503 234.375 125.503 234.375 125.503C225.75 125.503 218.75 132.503 218.75 141.128C218.75 149.753 225.75 156.753 234.375 156.753ZM178.344 234.878L198.547 214.675C204.641 208.581 204.641 198.675 198.547 192.581C192.453 186.487 182.547 186.487 176.453 192.581L129.578 239.456C123.469 245.55 123.469 255.456 129.578 261.55L176.453 308.425C182.547 314.519 192.453 314.519 198.547 308.425C204.641 302.331 204.641 292.425 198.547 286.331L178.344 266.128H296.875C305.5 266.128 312.5 259.128 312.5 250.503C312.5 241.878 305.5 234.878 296.875 234.878H178.344Z" fill="#1E3443"/>
</svg>
