<svg width="500" height="500" viewBox="0 0 500 500" fill="none" xmlns="http://www.w3.org/2000/svg">
<path d="M354.168 26.0415H62.5013C52.8461 26.0875 43.5995 29.9434 36.7722 36.7707C29.9449 43.5981 26.089 52.8447 26.043 62.4998V437.5C26.089 447.155 29.9449 456.402 36.7722 463.229C43.5995 470.056 52.8461 473.912 62.5013 473.958H375.001C377.29 473.958 379.585 473.958 381.878 473.75C382.124 473.502 382.404 473.291 382.711 473.125C386.517 462.707 389.035 451.862 390.21 440.833C385.237 442.084 380.129 442.714 375.001 442.708C357.044 442.708 339.822 435.575 327.124 422.877C314.427 410.179 307.293 392.957 307.293 375C307.293 357.042 314.427 339.821 327.124 327.123C339.822 314.425 357.044 307.292 375.001 307.292C380.267 307.273 385.515 307.903 390.626 309.167V62.4998C390.58 52.8447 386.724 43.5981 379.897 36.7707C373.07 29.9434 363.823 26.0875 354.168 26.0415ZM114.585 109.375H302.085C306.229 109.375 310.203 111.021 313.133 113.951C316.063 116.882 317.71 120.856 317.71 125C317.71 129.144 316.063 133.118 313.133 136.048C310.203 138.979 306.229 140.625 302.085 140.625H114.585C110.441 140.625 106.466 138.979 103.536 136.048C100.606 133.118 98.9596 129.144 98.9596 125C98.9596 120.856 100.606 116.882 103.536 113.951C106.466 111.021 110.441 109.375 114.585 109.375ZM114.585 192.708H302.085C306.229 192.708 310.203 194.354 313.133 197.285C316.063 200.215 317.71 204.189 317.71 208.333C317.71 212.477 316.063 216.451 313.133 219.382C310.203 222.312 306.229 223.958 302.085 223.958H114.585C110.441 223.958 106.466 222.312 103.536 219.382C100.606 216.451 98.9596 212.477 98.9596 208.333C98.9596 204.189 100.606 200.215 103.536 197.285C106.466 194.354 110.441 192.708 114.585 192.708ZM229.168 390.625H114.585C110.441 390.625 106.466 388.979 103.536 386.048C100.606 383.118 98.9596 379.144 98.9596 375C98.9596 370.856 100.606 366.882 103.536 363.951C106.466 361.021 110.441 359.375 114.585 359.375H229.168C233.312 359.375 237.286 361.021 240.217 363.951C243.147 366.882 244.793 370.856 244.793 375C244.793 379.144 243.147 383.118 240.217 386.048C237.286 388.979 233.312 390.625 229.168 390.625ZM250.001 307.292H114.585C110.441 307.292 106.466 305.645 103.536 302.715C100.606 299.785 98.9596 295.811 98.9596 291.667C98.9596 287.523 100.606 283.548 103.536 280.618C106.466 277.688 110.441 276.042 114.585 276.042H250.001C254.145 276.042 258.12 277.688 261.05 280.618C263.98 283.548 265.626 287.523 265.626 291.667C265.626 295.811 263.98 299.785 261.05 302.715C258.12 305.645 254.145 307.292 250.001 307.292Z" fill="#1E3443"/>
<path d="M390.626 277.291C377.686 275.222 364.464 275.743 351.727 278.824C338.99 281.905 326.992 287.485 316.429 295.239C305.865 302.994 296.947 312.769 290.191 323.997C283.435 335.226 278.976 347.684 277.073 360.649C275.17 373.614 275.86 386.828 279.104 399.525C282.348 412.221 288.081 424.147 295.97 434.61C303.859 445.073 313.747 453.866 325.061 460.477C336.375 467.089 348.89 471.388 361.878 473.125C366.227 473.713 370.612 473.992 375.001 473.958C377.289 473.958 379.584 473.958 381.877 473.75C406.115 472.059 428.884 461.511 445.847 444.116C462.81 426.721 472.781 403.694 473.862 379.422C474.943 355.149 467.058 331.327 451.708 312.493C436.358 293.66 414.617 281.13 390.626 277.291ZM390.209 440.833C385.237 442.084 380.128 442.714 375.001 442.708C357.043 442.708 339.821 435.575 327.124 422.877C314.426 410.179 307.292 392.957 307.292 375C307.292 357.042 314.426 339.821 327.124 327.123C339.821 314.425 357.043 307.291 375.001 307.291C380.266 307.273 385.514 307.903 390.626 309.166C405.486 312.668 418.722 321.097 428.18 333.081C437.638 345.065 442.76 359.899 442.712 375.165C442.664 390.432 437.448 405.233 427.914 417.157C418.381 429.081 405.091 437.426 390.209 440.833Z" fill="#1E3443"/>
<path d="M364.583 411.458C362.531 411.461 360.498 411.058 358.602 410.272C356.706 409.486 354.985 408.334 353.536 406.881L332.702 386.047C331.243 384.598 330.084 382.876 329.292 380.978C328.499 379.08 328.09 377.045 328.086 374.988C328.082 372.932 328.485 370.895 329.27 368.994C330.055 367.093 331.208 365.366 332.662 363.912C334.116 362.458 335.843 361.305 337.744 360.52C339.644 359.735 341.681 359.333 343.738 359.336C345.794 359.34 347.83 359.75 349.727 360.542C351.625 361.334 353.348 362.493 354.797 363.953L364.583 373.738L395.202 343.119C398.136 340.207 402.104 338.576 406.238 338.584C410.371 338.591 414.334 340.237 417.257 343.159C420.18 346.082 421.825 350.045 421.833 354.178C421.84 358.312 420.209 362.28 417.297 365.214L375.63 406.881C374.181 408.334 372.459 409.486 370.563 410.272C368.667 411.058 366.635 411.461 364.583 411.458Z" fill="#1E3443"/>
</svg>
