<svg height="512" viewBox="0 0 32 32" width="512" xmlns="http://www.w3.org/2000/svg"><g id="_x30_8"><path d="m26 25c.4003906 0 .7617188-.2382813.9189453-.605957l3-7c.1328125-.309082.1005859-.6640625-.0839844-.9443359-.1855468-.2807618-.4990234-.4497071-.8349609-.4497071h-15c-.0405273 0-.0805664.0024414-.1201172.0073242l-.9511719-2.3789063c-.1523437-.3793945-.5200195-.6284179-.9287109-.6284179h-4c-.5522461 0-1 .4477539-1 1s.4477539 1 1 1h3.3227539l3.7485352 9.371582c.1523437.3793946.5200195.628418.9287109.628418h2.1315308l-.6998291 1.0497437c-.1394043-.0308838-.2831421-.0497437-.4317017-.0497437-1.1028442 0-2 .8970947-2 2 0 1.1028442.8971558 2 2 2 .7369385 0 1.3748169-.4050903 1.7218018-1h4.5563965c.3469848.5949097.9848632 1 1.7218017 1 1.1028442 0 2-.8971558 2-2 0-1.1029053-.8971558-2-2-2-.7369385 0-1.3748169.4050903-1.7218018 1h-4.076355l1.333313-2z"/><circle cx="7" cy="5" r="3"/><path d="m9 8h-2-2c-1.6542969 0-3 1.3457031-3 3 0 .5527344.4477539 1 1 1h8c.5522461 0 1-.4472656 1-1 0-1.6542969-1.3457031-3-3-3z"/><path d="m21.4855347 2.1465759-5.4855347 2.8534546 6 3 6-3-5.4855347-2.8534546c-.3166504-.1954345-.7122802-.1954345-1.0289306 0z"/><path d="m16 11.5503235c0 .3343506.1671143.6465454.4453125.8320313l5.0546875 2.6176757v-6.2000122l-5.5-2.7145386z"/><path d="m22.5 15.0000305 5.0546875-2.6176758c.2781982-.1854858.4453125-.4976806.4453125-.8320312v-5.4648438l-5.5 2.7145386z"/></g></svg>