<svg width="512" height="512" viewBox="0 0 512 512" fill="none" xmlns="http://www.w3.org/2000/svg">
<g clip-path="url(#clip0_3600_25)">
<path d="M164.961 331.004H164.984C165.004 331.004 165.023 331 165.043 331H437C443.695 331 449.582 326.559 451.422 320.121L511.422 110.121C512.715 105.594 511.808 100.727 508.976 96.9688C506.14 93.211 501.707 91.0001 497 91.0001H130.367L119.644 42.7462C118.117 35.8829 112.031 31.0001 105 31.0001H15C6.71484 31.0001 0 37.715 0 46.0001C0 54.2853 6.71484 61.0001 15 61.0001H92.9687C94.8671 69.5509 144.281 291.918 147.125 304.711C131.184 311.641 120 327.535 120 346C120 370.812 140.187 391 165 391H437C445.285 391 452 384.285 452 376C452 367.715 445.285 361 437 361H165C156.73 361 150 354.269 150 346C150 337.742 156.707 331.023 164.961 331.004ZM477.113 121L425.683 301H177.031L137.031 121H477.113Z" fill="black"/>
<path d="M150 436C150 460.812 170.187 481 195 481C219.812 481 240 460.812 240 436C240 411.187 219.812 391 195 391C170.187 391 150 411.187 150 436ZM195 421C203.27 421 210 427.73 210 436C210 444.27 203.27 451 195 451C186.73 451 180 444.27 180 436C180 427.73 186.73 421 195 421Z" fill="black"/>
<path d="M362 436C362 460.812 382.187 481 407 481C431.812 481 452 460.812 452 436C452 411.187 431.812 391 407 391C382.187 391 362 411.187 362 436ZM407 421C415.27 421 422 427.73 422 436C422 444.27 415.27 451 407 451C398.73 451 392 444.27 392 436C392 427.73 398.73 421 407 421Z" fill="black"/>
</g>
<defs>
<clipPath id="clip0_3600_25">
<rect width="512" height="512" fill="white"/>
</clipPath>
</defs>
</svg>
