<svg width="25" height="25" viewBox="0 0 25 25" fill="none" xmlns="http://www.w3.org/2000/svg">
<g clip-path="url(#clip0_2919_1340)">
<path d="M8.26379 15.7345H8.26489C8.2658 15.7345 8.26672 15.7344 8.26763 15.7344H21.0156C21.3295 15.7344 21.6054 15.5262 21.6916 15.2244L24.5041 5.38067C24.5647 5.16845 24.5223 4.9403 24.3895 4.76416C24.2566 4.58801 24.0488 4.48437 23.8281 4.48437H6.64221L6.13958 2.22247C6.06799 1.90076 5.78271 1.67188 5.45312 1.67188H1.23437C0.846008 1.67188 0.53125 1.98663 0.53125 2.375C0.53125 2.76337 0.846008 3.07812 1.23437 3.07812H4.88916C4.97815 3.47894 7.29443 13.9024 7.42773 14.5021C6.68048 14.8269 6.15625 15.5719 6.15625 16.4375C6.15625 17.6006 7.10253 18.5469 8.26562 18.5469H21.0156C21.404 18.5469 21.7187 18.2321 21.7187 17.8437C21.7187 17.4554 21.404 17.1406 21.0156 17.1406H8.26562C7.87799 17.1406 7.5625 16.8251 7.5625 16.4375C7.5625 16.0504 7.87689 15.7355 8.26379 15.7345ZM22.8959 5.89062L20.4852 14.3281H8.82958L6.95459 5.89062H22.8959Z" fill="#122513"/>
<path d="M7.5625 20.6562C7.5625 21.8193 8.50879 22.7656 9.67187 22.7656C10.835 22.7656 11.7812 21.8193 11.7812 20.6562C11.7812 19.4932 10.835 18.5469 9.67187 18.5469C8.50879 18.5469 7.5625 19.4932 7.5625 20.6562ZM9.67187 19.9531C10.0595 19.9531 10.375 20.2686 10.375 20.6562C10.375 21.0439 10.0595 21.3594 9.67187 21.3594C9.28424 21.3594 8.96875 21.0439 8.96875 20.6562C8.96875 20.2686 9.28424 19.9531 9.67187 19.9531Z" fill="#122513"/>
<path d="M17.5 20.6562C17.5 21.8193 18.4463 22.7656 19.6094 22.7656C20.7725 22.7656 21.7187 21.8193 21.7187 20.6562C21.7187 19.4932 20.7725 18.5469 19.6094 18.5469C18.4463 18.5469 17.5 19.4932 17.5 20.6562ZM19.6094 19.9531C19.997 19.9531 20.3125 20.2686 20.3125 20.6562C20.3125 21.0439 19.997 21.3594 19.6094 21.3594C19.2217 21.3594 18.9062 21.0439 18.9062 20.6562C18.9062 20.2686 19.2217 19.9531 19.6094 19.9531Z" fill="#122513"/>
</g>
<defs>
<clipPath id="clip0_2919_1340">
<rect width="24" height="24" fill="white" transform="translate(0.53125 0.21875)"/>
</clipPath>
</defs>
</svg>
