<svg width="513" height="512" viewBox="0 0 513 512" fill="none" xmlns="http://www.w3.org/2000/svg">
<g clip-path="url(#clip0_3585_62)">
<path d="M471.578 72.5781C445.074 43.832 408.707 28 369.168 28C339.613 28 312.547 37.3438 288.719 55.7695C276.695 65.0703 265.801 76.4492 256.195 89.7305C246.594 76.4531 235.695 65.0703 223.668 55.7695C199.844 37.3438 172.777 28 143.223 28C103.684 28 67.3125 43.832 40.8086 72.5781C14.6211 100.988 0.195312 139.801 0.195312 181.871C0.195312 225.172 16.332 264.809 50.9766 306.613C81.9688 344.008 126.512 381.969 178.094 425.926C195.707 440.938 215.672 457.953 236.402 476.078C241.879 480.875 248.906 483.516 256.195 483.516C263.48 483.516 270.512 480.875 275.98 476.086C296.711 457.957 316.688 440.934 334.309 425.914C385.883 381.965 430.426 344.008 461.418 306.609C496.062 264.809 512.195 225.172 512.195 181.867C512.195 139.801 497.77 100.988 471.578 72.5781Z" fill="black"/>
</g>
<defs>
<clipPath id="clip0_3585_62">
<rect width="512" height="512" fill="white" transform="translate(0.195312)"/>
</clipPath>
</defs>
</svg>
