<svg width="14" height="15" viewBox="0 0 14 15" fill="none" xmlns="http://www.w3.org/2000/svg">
<g clip-path="url(#clip0_4901_105)">
<path d="M6.99999 13.4064C6.80068 13.4064 6.60852 13.3342 6.45877 13.2031C5.89321 12.7085 5.34794 12.2438 4.86686 11.8338L4.8644 11.8317C3.45396 10.6298 2.23599 9.59177 1.38855 8.56926C0.441238 7.42616 0 6.34235 0 5.15834C0 4.00798 0.394454 2.9467 1.11062 2.16986C1.83534 1.38383 2.82975 0.950928 3.911 0.950928C4.71914 0.950928 5.45923 1.20642 6.11068 1.71025C6.43944 1.96457 6.73744 2.27582 6.99999 2.63887C7.26264 2.27582 7.56053 1.96457 7.8894 1.71025C8.54085 1.20642 9.28094 0.950928 10.0891 0.950928C11.1702 0.950928 12.1647 1.38383 12.8895 2.16986C13.6056 2.9467 14 4.00798 14 5.15834C14 6.34235 13.5588 7.42616 12.6115 8.56915C11.7641 9.59177 10.5462 10.6297 9.136 11.8315C8.65407 12.2421 8.10794 12.7076 7.54109 13.2033C7.39145 13.3342 7.19919 13.4064 6.99999 13.4064ZM3.911 1.77103C3.06153 1.77103 2.28117 2.11005 1.71347 2.72571C1.13733 3.35066 0.819991 4.21455 0.819991 5.15834C0.819991 6.15414 1.19009 7.04474 2.01991 8.04599C2.82196 9.01381 4.01493 10.0304 5.39621 11.2076L5.39878 11.2097C5.88167 11.6213 6.42908 12.0878 6.99881 12.586C7.57196 12.0869 8.12022 11.6196 8.60408 11.2074C9.98526 10.0302 11.1781 9.01381 11.9802 8.04599C12.8099 7.04474 13.18 6.15414 13.18 5.15834C13.18 4.21455 12.8626 3.35066 12.2865 2.72571C11.7189 2.11005 10.9384 1.77103 10.0891 1.77103C9.46679 1.77103 8.89546 1.96884 8.39099 2.35892C7.94142 2.7067 7.62825 3.14633 7.44464 3.45395C7.35022 3.61214 7.18402 3.70656 6.99999 3.70656C6.81595 3.70656 6.64975 3.61214 6.55533 3.45395C6.37183 3.14633 6.05866 2.7067 5.60898 2.35892C5.10451 1.96884 4.53318 1.77103 3.911 1.77103Z" fill="#1E3443"/>
</g>
<defs>
<clipPath id="clip0_4901_105">
<rect width="14" height="14" fill="white" transform="translate(0 0.185303)"/>
</clipPath>
</defs>
</svg>
