<svg width="513" height="512" viewBox="0 0 513 512" fill="none" xmlns="http://www.w3.org/2000/svg">
<g clip-path="url(#clip0_3600_64)">
<path d="M475.144 74.27C449.891 45.616 414.858 29.836 376.5 29.836C322.552 29.836 288.397 62.056 269.245 89.086C264.276 96.1 260.049 103.133 256.5 109.751C252.951 103.133 248.725 96.1 243.755 89.086C224.603 62.056 190.448 29.836 136.5 29.836C98.142 29.836 63.109 45.617 37.855 74.271C13.767 101.605 0.5 138.213 0.5 177.351C0.5 219.954 17.133 259.579 52.845 302.051C84.762 340.011 130.679 379.139 183.85 424.448C203.663 441.332 224.152 458.792 245.965 477.877L246.62 478.451C249.448 480.927 252.974 482.164 256.5 482.164C260.026 482.164 263.552 480.926 266.38 478.451L267.035 477.877C288.848 458.792 309.337 441.333 329.153 424.446C382.321 379.14 428.238 340.012 460.155 302.051C495.867 259.578 512.5 219.954 512.5 177.351C512.5 138.213 499.233 101.605 475.144 74.27ZM309.693 401.614C292.613 416.168 275.035 431.147 256.5 447.26C237.966 431.149 220.387 416.169 203.304 401.612C99.245 312.939 30.5 254.358 30.5 177.351C30.5 145.521 41.105 115.957 60.362 94.106C79.84 72.007 106.879 59.836 136.5 59.836C177.629 59.836 204.216 85.174 219.276 106.43C232.785 125.494 239.834 144.712 242.238 152.089C244.249 158.264 250.006 162.443 256.5 162.443C262.994 162.443 268.751 158.264 270.762 152.089C273.166 144.712 280.215 125.494 293.724 106.429C308.784 85.174 335.371 59.836 376.5 59.836C406.121 59.836 433.16 72.007 452.637 94.106C471.895 115.957 482.5 145.521 482.5 177.351C482.5 254.358 413.755 312.939 309.693 401.614Z" fill="black"/>
</g>
<defs>
<clipPath id="clip0_3600_64">
<rect width="512" height="512" fill="white" transform="translate(0.5)"/>
</clipPath>
</defs>
</svg>
