<svg width="512" height="512" viewBox="0 0 512 512" fill="none" xmlns="http://www.w3.org/2000/svg">
<path fill-rule="evenodd" clip-rule="evenodd" d="M232.249 49.7726C139.22 49.7726 50.495 125.72 50.495 232.25C50.495 334.897 131.38 416.268 232.249 416.268C278.165 416.268 333.394 391.964 363.504 361.852C384.433 340.921 416.459 298.193 416.459 232.25C416.459 140.433 336.637 49.7726 232.249 49.7726ZM18.5 232.25C18.5 114.2 114.199 18.5006 232.249 18.5006C350.301 18.5006 447.882 114.2 447.882 232.25C447.882 282.709 425.371 333.449 396.138 370.005L483.507 456.828C496.908 469.687 495.865 477.22 486.542 486.543C477.22 495.866 467.39 492.587 458.115 483.312L368.562 397.308C332.006 426.542 282.709 446 232.249 446C114.199 446 18.5 350.302 18.5 232.25Z" fill="black"/>
</svg>
