<svg width="512" height="512" viewBox="0 0 512 512" fill="none" xmlns="http://www.w3.org/2000/svg">
<path d="M233.376 41.2012C127.59 41.2012 41.418 127.373 41.418 233.16C41.418 338.945 127.59 425.286 233.376 425.286C278.561 425.286 320.116 409.451 352.96 383.16L432.918 463.076C436.953 466.944 442.342 469.078 447.932 469.021C453.521 468.964 458.866 466.721 462.821 462.771C466.776 458.821 469.027 453.481 469.092 447.892C469.157 442.302 467.03 436.91 463.168 432.869L383.21 352.911C409.523 320.018 425.376 278.396 425.376 233.16C425.376 127.373 339.162 41.2012 233.376 41.2012ZM233.376 83.8685C316.104 83.8685 382.668 150.433 382.668 233.16C382.668 315.887 316.104 382.618 233.376 382.618C150.649 382.618 84.0846 315.887 84.0846 233.16C84.0846 150.433 150.649 83.8685 233.376 83.8685Z" fill="black"/>
</svg>
