<svg width="12" height="15" viewBox="0 0 12 15" fill="none" xmlns="http://www.w3.org/2000/svg">
<path d="M8.59051 4.47676L8.50301 3.29551C8.40457 1.99395 7.31082 0.96582 5.99832 0.96582C4.68582 0.96582 3.58113 1.99395 3.49363 3.29551L3.40613 4.47676H2.14832C1.63426 4.47676 1.2077 4.88145 1.16395 5.39551L0.573321 13.6971C0.551446 13.9705 0.649883 14.2439 0.835821 14.4408C1.02176 14.6377 1.28426 14.758 1.5577 14.758H10.4499C10.7233 14.758 10.9858 14.6486 11.1718 14.4408C11.3577 14.2439 11.4561 13.9705 11.4343 13.6971L10.8436 5.47207C10.7999 4.91426 10.3405 4.4877 9.78269 4.4877H8.59051V4.47676ZM4.14988 3.33926C4.21551 2.37676 5.02488 1.62207 5.99832 1.62207C6.97176 1.62207 7.78113 2.37676 7.84676 3.33926L7.92332 4.47676H4.06238L4.14988 3.33926ZM10.1874 5.51582L10.778 13.7408C10.7889 13.8283 10.7561 13.9158 10.6905 13.9924C10.6249 14.058 10.5374 14.1018 10.4499 14.1018H1.5577C1.4702 14.1018 1.3827 14.0689 1.31707 13.9924C1.25145 13.9158 1.21863 13.8393 1.22957 13.7408L1.8202 5.43926C1.83113 5.26426 1.97332 5.13301 2.14832 5.13301H3.36238L3.29676 6.00801C3.28582 6.19395 3.41707 6.34707 3.60301 6.35801H3.62488C3.79988 6.35801 3.94207 6.22676 3.95301 6.05176L4.01863 5.13301H7.97801L8.04363 6.05176C8.05457 6.2377 8.2077 6.36895 8.39363 6.35801C8.57957 6.34707 8.71082 6.19395 8.69988 6.00801L8.63426 5.13301H9.78269C9.99051 5.13301 10.1655 5.29707 10.1874 5.51582Z" fill="#1E3443"/>
</svg>
