<svg width="512" height="512" viewBox="0 0 512 512" fill="none" xmlns="http://www.w3.org/2000/svg">
<mask id="mask0_4901_17" style="mask-type:luminance" maskUnits="userSpaceOnUse" x="0" y="0" width="512" height="512">
<path d="M511.309 0H0V511.309H511.309V0Z" fill="white"/>
</mask>
<g mask="url(#mask0_4901_17)">
<path d="M163.104 397.705C133.623 397.705 109.725 421.604 109.725 451.085C109.725 480.566 133.624 504.464 163.104 504.464C192.585 504.464 216.484 480.565 216.484 451.085C216.485 421.604 192.585 397.705 163.104 397.705Z" fill="black"/>
<path d="M388.489 397.705C359.008 397.705 335.109 421.604 335.109 451.085C335.109 480.566 359.009 504.464 388.489 504.464C417.969 504.464 441.869 480.565 441.869 451.085C441.869 421.604 417.971 397.705 388.489 397.705Z" fill="black"/>
<path d="M508.891 86.3216C506.42 83.6231 503.041 81.9338 499.401 81.5762L113.285 76.2383L102.609 43.6167C95.0878 21.8096 74.6669 7.08759 51.6007 6.84351H11.8623C5.31072 6.84351 0 12.1543 0 18.7058C0 25.2574 5.31072 30.5681 11.8623 30.5681H51.6007C64.4984 30.853 75.8555 39.1347 80.0707 51.3274L155.396 278.49L149.465 292.131C142.85 309.189 144.837 328.388 154.803 343.731C164.674 358.801 181.281 368.101 199.287 368.642H430.008C436.56 368.642 441.871 363.332 441.871 356.78C441.871 350.229 436.56 344.918 430.008 344.918H199.286C189.118 344.664 179.757 339.314 174.375 330.683C169.053 322.157 167.96 311.654 171.41 302.213L176.155 291.537L425.856 265.44C453.283 262.419 475.846 242.47 482.202 215.618L510.672 96.4027C511.955 92.9697 511.273 89.1086 508.891 86.3216Z" fill="black"/>
</g>
</svg>
