<svg width="512" height="512" viewBox="0 0 512 512" fill="none" xmlns="http://www.w3.org/2000/svg">
<g clip-path="url(#clip0_3588_2)">
<path d="M508.82 134.301C505.977 130.66 501.616 128.532 496.997 128.532H123.113C119.971 115.964 114.657 94.7061 109.405 73.7083C98.557 30.3107 59.7374 0 15.0018 0C6.71789 0 0.00195312 6.71593 0.00195312 14.9999C0.00195312 23.2838 6.71789 29.9997 15.0018 29.9997C45.9455 29.9997 72.7972 50.9645 80.3012 80.9852L134.397 297.376C138.514 313.842 148.14 327.723 161.009 337.285C135.278 361.741 141.038 406.509 171.598 423.903C144.515 459.328 170.872 512.412 215.835 511.994C256.501 512.544 283.959 467.374 264.899 431.662H343.5C324.446 467.38 351.894 512.544 392.566 511.994C465.646 509.224 465.632 404.425 392.565 401.662H199.767C166.418 400.393 166.443 352.587 199.767 351.33H404.896C437.643 351.33 466.06 329.143 474.001 297.375L511.549 147.169C512.669 142.689 511.663 137.941 508.82 134.301ZM392.565 431.663C406.442 431.663 417.732 442.953 417.732 456.83C416.467 490.17 368.659 490.161 367.398 456.83C367.398 442.953 378.688 431.663 392.565 431.663ZM215.834 431.663C229.711 431.663 241.001 442.953 241.001 456.83C239.736 490.17 191.928 490.161 190.667 456.83C190.667 442.953 201.957 431.663 215.834 431.663ZM444.898 290.1C440.301 308.488 423.852 321.331 404.896 321.331H203.502C184.546 321.331 168.097 308.488 163.5 290.101L130.612 158.532H477.786L444.898 290.1Z" fill="black"/>
</g>
<defs>
<clipPath id="clip0_3588_2">
<rect width="512" height="512" fill="white"/>
</clipPath>
</defs>
</svg>
