<svg width="451" height="451" viewBox="0 0 451 451" fill="none" xmlns="http://www.w3.org/2000/svg">
<g clip-path="url(#clip0_3584_43)">
<path d="M143.672 350.322C117.703 350.322 96.6523 371.374 96.6523 397.342C96.6523 423.311 117.704 444.362 143.672 444.362C169.641 444.362 190.692 423.31 190.692 397.342C190.693 371.374 169.641 350.322 143.672 350.322ZM143.672 423.465C129.245 423.465 117.55 411.77 117.55 397.343C117.55 382.916 129.245 371.221 143.672 371.221C158.099 371.221 169.794 382.916 169.794 397.343C169.795 411.77 158.099 423.465 143.672 423.465Z" fill="black"/>
<path d="M342.204 350.322C316.235 350.322 295.184 371.374 295.184 397.342C295.184 423.311 316.236 444.362 342.204 444.362C368.172 444.362 389.224 423.31 389.224 397.342C389.224 371.374 368.173 350.322 342.204 350.322ZM342.204 423.465C327.777 423.465 316.082 411.77 316.082 397.343C316.082 382.916 327.777 371.221 342.204 371.221C356.631 371.221 368.326 382.916 368.326 397.343C368.327 411.77 356.631 423.465 342.204 423.465Z" fill="black"/>
<path d="M448.261 76.0371C446.085 73.6601 443.108 72.1721 439.902 71.8571L99.788 67.1551L90.384 38.4201C83.759 19.2111 65.771 6.24308 45.453 6.02808H10.449C4.678 6.02808 0 10.7061 0 16.4771C0 22.2481 4.678 26.9261 10.449 26.9261H45.453C56.814 27.1771 66.818 34.4721 70.531 45.2121L136.882 245.31L131.658 257.326C125.831 272.352 127.581 289.264 136.36 302.779C145.055 316.053 159.683 324.245 175.544 324.722H378.777C384.548 324.722 389.226 320.044 389.226 314.273C389.226 308.502 384.548 303.824 378.777 303.824H175.543C166.586 303.6 158.341 298.888 153.6 291.285C148.912 283.775 147.949 274.523 150.988 266.207L155.168 256.803L375.119 233.815C399.279 231.154 419.153 213.582 424.752 189.929L449.83 84.9171C450.96 81.8931 450.36 78.4921 448.261 76.0371ZM404.376 185.228C400.984 200.454 388.057 211.685 372.507 212.918L155.168 235.383L106.58 88.0531L426.841 92.7551L404.376 185.228Z" fill="black"/>
</g>
<defs>
<clipPath id="clip0_3584_43">
<rect width="450.391" height="450.391" fill="white"/>
</clipPath>
</defs>
</svg>
